<?xml version="1.0" encoding="UTF-8"?>
<!DOCTYPE svg PUBLIC "-//W3C//DTD SVG 1.1//EN" "http://www.w3.org/Graphics/SVG/1.1/DTD/svg11.dtd">
<svg xmlns="http://www.w3.org/2000/svg" version="1.1" width="640px" height="480px" style="shape-rendering:geometricPrecision; text-rendering:geometricPrecision; image-rendering:optimizeQuality; fill-rule:evenodd; clip-rule:evenodd" xmlns:xlink="http://www.w3.org/1999/xlink">
<g><path style="opacity:1" fill="#fefefe" d="M -0.5,-0.5 C 212.833,-0.5 426.167,-0.5 639.5,-0.5C 639.5,159.5 639.5,319.5 639.5,479.5C 426.167,479.5 212.833,479.5 -0.5,479.5C -0.5,319.5 -0.5,159.5 -0.5,-0.5 Z"/></g>
<g><path style="opacity:1" fill="#030303" d="M 283.5,35.5 C 285.857,35.3367 288.19,35.5034 290.5,36C 288.527,36.4955 286.527,36.6621 284.5,36.5C 284.666,40.5138 284.499,44.5138 284,48.5C 283.501,44.1794 283.334,39.8461 283.5,35.5 Z"/></g>
<g><path style="opacity:1" fill="#2c2c2c" d="M 293.5,38.5 C 301.175,37.7094 303.175,40.876 299.5,48C 297.888,48.7203 296.388,48.5536 295,47.5C 294.667,49.1667 294.333,50.8333 294,52.5C 293.501,47.8452 293.334,43.1785 293.5,38.5 Z"/></g>
<g><path style="opacity:1" fill="#e6e6e6" d="M 294.5,40.5 C 296.167,40.5 297.833,40.5 299.5,40.5C 299.5,42.5 299.5,44.5 299.5,46.5C 295.092,46.938 293.425,44.938 294.5,40.5 Z"/></g>
<g><path style="opacity:1" fill="#2d2d2d" d="M 364.5,35.5 C 370.674,34.1729 372.841,36.5062 371,42.5C 369.5,44 368,45.5 366.5,47C 368.167,47.3333 369.833,47.6667 371.5,48C 369.098,48.8141 366.765,48.6474 364.5,47.5C 367.548,44.7291 369.548,41.3958 370.5,37.5C 367.918,37.9746 365.918,37.3079 364.5,35.5 Z"/></g>
<g><path style="opacity:1" fill="#3c3c3c" d="M 348.5,38.5 C 350.164,39.9488 350.998,41.9488 351,44.5C 351.782,41.9242 353.282,39.9242 355.5,38.5C 356.833,41.8333 356.833,45.1667 355.5,48.5C 354.692,46.5767 354.192,44.5767 354,42.5C 352.732,44.7173 351.232,46.7173 349.5,48.5C 348.513,45.2317 348.18,41.8984 348.5,38.5 Z"/></g>
<g><path style="opacity:1" fill="#2a2a2a" d="M 327.5,38.5 C 329.197,40.3052 330.03,42.6385 330,45.5C 331.015,42.7899 332.515,40.4566 334.5,38.5C 335.657,41.7844 335.824,45.1177 335,48.5C 335.186,39.5467 333.686,39.2133 330.5,47.5C 329.675,48.3857 328.675,48.719 327.5,48.5C 327.5,45.1667 327.5,41.8333 327.5,38.5 Z"/></g>
<g><path style="opacity:1" fill="#373737" d="M 338.5,38.5 C 339.859,39.0065 340.859,40.0065 341.5,41.5C 345.368,37.4314 346.035,37.7647 343.5,42.5C 344.26,44.4366 345.26,46.2699 346.5,48C 345.833,48.6667 345.167,48.6667 344.5,48C 342.343,43.255 340.676,43.4217 339.5,48.5C 338.513,45.2317 338.18,41.8984 338.5,38.5 Z"/></g>
<g><path style="opacity:1" fill="#202020" d="M 307.5,47.5 C 305.316,48.9829 303.983,48.3163 303.5,45.5C 303.608,44.5581 303.941,43.7247 304.5,43C 305.938,42.7811 307.271,42.2811 308.5,41.5C 306.833,40.8333 305.167,40.1667 303.5,39.5C 308.117,37.4744 310.451,38.9744 310.5,44C 310.333,45.5 310.167,47 310,48.5C 309.329,47.7476 308.496,47.4142 307.5,47.5 Z"/></g>
<g><path style="opacity:1" fill="#c3c3c3" d="M 307.5,47.5 C 304.827,47.3155 304.16,46.1489 305.5,44C 306.793,43.51 308.127,43.3433 309.5,43.5C 309.473,45.1993 308.806,46.5326 307.5,47.5 Z"/></g>
<g><path style="opacity:1" fill="#2c2c2c" d="M 318.5,35.5 C 320.048,35.8212 320.715,36.8212 320.5,38.5C 325.151,39.1742 326.651,41.8408 325,46.5C 323.89,48.0368 322.39,48.7035 320.5,48.5C 320.762,49.9778 320.429,51.3112 319.5,52.5C 318.702,50.9223 318.202,49.2556 318,47.5C 316.667,48.8333 315.333,48.8333 314,47.5C 313.333,44.8333 313.333,42.1667 314,39.5C 315.333,38.1667 316.667,38.1667 318,39.5C 318.49,38.2068 318.657,36.8734 318.5,35.5 Z"/></g>
<g><path style="opacity:1" fill="#f5f5f5" d="M 320.5,40.5 C 321.5,40.5 322.5,40.5 323.5,40.5C 323.5,42.5 323.5,44.5 323.5,46.5C 322.5,46.5 321.5,46.5 320.5,46.5C 320.5,44.5 320.5,42.5 320.5,40.5 Z"/></g>
<g><path style="opacity:1" fill="#eaeaea" d="M 315.5,40.5 C 316.5,40.5 317.5,40.5 318.5,40.5C 318.5,42.5 318.5,44.5 318.5,46.5C 314.556,46.1156 313.556,44.1156 315.5,40.5 Z"/></g>
<g><path style="opacity:1" fill="#2b2b2b" d="M 62.5,52.5 C 64.1439,52.2865 65.6439,52.6198 67,53.5C 67.7772,56.4294 67.6105,59.2628 66.5,62C 64.8876,62.7203 63.3876,62.5536 62,61.5C 61.2642,58.408 61.4309,55.408 62.5,52.5 Z"/></g>
<g><path style="opacity:1" fill="#eeeeee" d="M 63.5,53.5 C 66.9667,55.8227 67.3001,58.4894 64.5,61.5C 62.2251,59.1682 61.8918,56.5016 63.5,53.5 Z"/></g>
<g><path style="opacity:1" fill="#131313" d="M 45.5,53.5 C 46.209,52.596 47.209,52.2627 48.5,52.5C 48.5,55.5 48.5,58.5 48.5,61.5C 51.2627,62.4551 50.2627,62.6218 45.5,62C 46.6841,60.8197 47.3507,59.3197 47.5,57.5C 47.4146,55.6672 46.7479,54.3339 45.5,53.5 Z"/></g>
<g><path style="opacity:1" fill="#424242" d="M 53.5,52.5 C 59.7863,53.3146 61.1196,56.4812 57.5,62C 55.8876,62.7203 54.3876,62.5536 53,61.5C 52.2642,58.408 52.4309,55.408 53.5,52.5 Z"/></g>
<g><path style="opacity:1" fill="#eaeaea" d="M 54.5,53.5 C 56.8896,53.6848 57.8896,55.0182 57.5,57.5C 56.3126,62.7522 54.9793,62.7522 53.5,57.5C 53.8457,56.1508 54.179,54.8175 54.5,53.5 Z"/></g>
<g><path style="opacity:1" fill="#393939" d="M 63.5,114.5 C 69.7863,115.315 71.1196,118.481 67.5,124C 65.8876,124.72 64.3876,124.554 63,123.5C 62.2642,120.408 62.4309,117.408 63.5,114.5 Z"/></g>
<g><path style="opacity:1" fill="#e5e5e5" d="M 64.5,115.5 C 66.8896,115.685 67.8896,117.018 67.5,119.5C 66.1667,124.833 64.8333,124.833 63.5,119.5C 63.6233,118.075 63.9566,116.742 64.5,115.5 Z"/></g>
<g><path style="opacity:1" fill="#767676" d="M 54.5,114.5 C 56.4672,114.261 58.3005,114.594 60,115.5C 60.2022,118.259 60.0355,121.092 59.5,124C 57.5594,124.743 55.7261,124.576 54,123.5C 54.1387,120.473 54.3053,117.473 54.5,114.5 Z"/></g>
<g><path style="opacity:1" fill="#3e3e3e" d="M 63.5,183.5 C 62.3709,181.372 62.2042,179.039 63,176.5C 68.6889,175.201 70.6889,177.534 69,183.5C 66.9104,186.017 65.0771,186.017 63.5,183.5 Z"/></g>
<g><path style="opacity:1" fill="#eaeaea" d="M 63.5,183.5 C 63.162,180.843 63.8287,178.51 65.5,176.5C 66.086,176.709 66.586,177.043 67,177.5C 67.6667,179.5 67.6667,181.5 67,183.5C 65.8545,184.684 64.6879,184.684 63.5,183.5 Z"/></g>
<g><path style="opacity:1" fill="#5f5f5f" d="M 55.5,175.5 C 56.8734,175.343 58.2068,175.51 59.5,176C 54.1676,177.572 54.3342,178.739 60,179.5C 61.0657,185.56 59.0657,186.894 54,183.5C 53.1093,180.502 53.6093,177.836 55.5,175.5 Z"/></g>
<g><path style="opacity:1" fill="#363636" d="M 23.5,223.5 C 27.0205,225.229 30.6872,226.562 34.5,227.5C 34.6495,228.552 34.4828,229.552 34,230.5C 31.014,228.632 27.8473,226.965 24.5,225.5C 23.7025,225.043 23.3691,224.376 23.5,223.5 Z"/></g>
<g><path style="opacity:1" fill="#4d4d4d" d="M 56.5,237.5 C 57.5,237.5 58.5,237.5 59.5,237.5C 59.2436,239.792 59.5769,241.959 60.5,244C 59.9288,245.205 59.2621,246.372 58.5,247.5C 57.6143,246.675 57.281,245.675 57.5,244.5C 56.1667,244.5 54.8333,244.5 53.5,244.5C 54.0427,241.962 55.0427,239.628 56.5,237.5 Z"/></g>
<g><path style="opacity:1" fill="#242424" d="M 27.5,236.5 C 31.0681,236.759 32.4015,238.759 31.5,242.5C 28.8127,242.664 26.146,242.497 23.5,242C 24.448,241.517 25.448,241.351 26.5,241.5C 26.366,239.708 26.6993,238.042 27.5,236.5 Z"/></g>
<g><path style="opacity:1" fill="#d6d6d6" d="M 27.5,238.5 C 28.5,238.5 29.5,238.5 30.5,238.5C 30.5,239.5 30.5,240.5 30.5,241.5C 29.5,241.5 28.5,241.5 27.5,241.5C 27.5,240.5 27.5,239.5 27.5,238.5 Z"/></g>
<g><path style="opacity:1" fill="#333333" d="M 62.5,237.5 C 68.7863,238.315 70.1196,241.481 66.5,247C 64.8876,247.72 63.3876,247.554 62,246.5C 61.2642,243.408 61.4309,240.408 62.5,237.5 Z"/></g>
<g><path style="opacity:1" fill="#ebebeb" d="M 63.5,238.5 C 65.8896,238.685 66.8896,240.018 66.5,242.5C 65.1667,247.833 63.8333,247.833 62.5,242.5C 62.6233,241.075 62.9566,239.742 63.5,238.5 Z"/></g>
<g><path style="opacity:1" fill="#2a2a2a" d="M 23.5,245.5 C 25.8091,250.806 28.3091,250.806 31,245.5C 31.6667,246.833 31.6667,248.167 31,249.5C 28.9361,250.591 26.7695,250.758 24.5,250C 23.6198,248.644 23.2865,247.144 23.5,245.5 Z"/></g>
<g><path style="opacity:1" fill="#353535" d="M 22.5,255.5 C 22.4142,254.504 22.7476,253.671 23.5,253C 30.9945,251.813 32.9945,254.479 29.5,261C 23.7013,262.673 21.368,260.839 22.5,255.5 Z"/></g>
<g><path style="opacity:1" fill="#e9e9e9" d="M 22.5,255.5 C 24.7375,254.463 27.0709,254.297 29.5,255C 30.9865,258.042 29.9865,259.875 26.5,260.5C 23.6857,260.019 22.3524,258.352 22.5,255.5 Z"/></g>
<g><path style="opacity:1" fill="#444444" d="M 55.5,307.5 C 56.0476,305.606 57.0476,303.94 58.5,302.5C 58.1667,301.5 57.5,300.833 56.5,300.5C 55.3914,301.59 54.3914,301.59 53.5,300.5C 58.0189,298.412 59.8523,299.746 59,304.5C 57.9609,305.71 56.7942,306.71 55.5,307.5 Z"/></g>
<g><path style="opacity:1" fill="#141414" d="M 55.5,307.5 C 56.6085,308.29 57.9419,308.79 59.5,309C 57.4213,309.808 55.4213,309.641 53.5,308.5C 53.9569,307.702 54.6236,307.369 55.5,307.5 Z"/></g>
<g><path style="opacity:1" fill="#383838" d="M 63.5,299.5 C 69.7863,300.315 71.1196,303.481 67.5,309C 65.8876,309.72 64.3876,309.554 63,308.5C 62.2642,305.408 62.4309,302.408 63.5,299.5 Z"/></g>
<g><path style="opacity:1" fill="#e9e9e9" d="M 64.5,300.5 C 66.8896,300.685 67.8896,302.018 67.5,304.5C 67.6578,306.319 66.9911,307.652 65.5,308.5C 64.0542,307.829 63.3875,306.662 63.5,305C 63.7728,303.467 64.1062,301.967 64.5,300.5 Z"/></g>
<g><path style="opacity:1" fill="#414141" d="M 63.5,360.5 C 69.7863,361.315 71.1196,364.481 67.5,370C 65.8876,370.72 64.3876,370.554 63,369.5C 62.3658,366.445 62.5325,363.445 63.5,360.5 Z"/></g>
<g><path style="opacity:1" fill="#e7e7e7" d="M 64.5,361.5 C 66.8896,361.685 67.8896,363.018 67.5,365.5C 66.3126,370.752 64.9793,370.752 63.5,365.5C 63.8457,364.151 64.179,362.817 64.5,361.5 Z"/></g>
<g><path style="opacity:1" fill="#010101" d="M 74.5,58.5 C 241.666,57.5003 408.999,57.167 576.5,57.5C 576.833,183.522 576.5,306.855 575.5,427.5C 555.167,427.5 534.833,427.5 514.5,427.5C 514.167,432.833 513.833,432.833 513.5,427.5C 493.167,427.5 472.833,427.5 452.5,427.5C 452.167,432.833 451.833,432.833 451.5,427.5C 431.167,427.5 410.833,427.5 390.5,427.5C 390.167,432.833 389.833,432.833 389.5,427.5C 369.167,427.5 348.833,427.5 328.5,427.5C 328.167,432.833 327.833,432.833 327.5,427.5C 307.167,427.5 286.833,427.5 266.5,427.5C 266.167,432.833 265.833,432.833 265.5,427.5C 245.167,427.5 224.833,427.5 204.5,427.5C 204.167,432.833 203.833,432.833 203.5,427.5C 183.167,427.5 162.833,427.5 142.5,427.5C 142.167,432.833 141.833,432.833 141.5,427.5C 121.167,427.5 100.833,427.5 80.5,427.5C 80.1667,432.833 79.8333,432.833 79.5,427.5C 74.1667,427.167 74.1667,426.833 79.5,426.5C 79.5,406.5 79.5,386.5 79.5,366.5C 74.1667,366.167 74.1667,365.833 79.5,365.5C 79.5,345.167 79.5,324.833 79.5,304.5C 74.1667,304.167 74.1667,303.833 79.5,303.5C 79.5,283.167 79.5,262.833 79.5,242.5C 72.8333,242.167 72.8333,241.833 79.5,241.5C 79.5,221.5 79.5,201.5 79.5,181.5C 72.8333,181.167 72.8333,180.833 79.5,180.5C 79.5,160.167 79.5,139.833 79.5,119.5C 74.1667,119.167 74.1667,118.833 79.5,118.5C 79.5,98.5 79.5,78.5 79.5,58.5C 77.8333,58.5 76.1667,58.5 74.5,58.5 Z"/></g>
<g><path style="opacity:1" fill="#b1b1b1" d="M 141.5,58.5 C 141.833,58.5 142.167,58.5 142.5,58.5C 142.5,78.5 142.5,98.5 142.5,118.5C 162.833,118.5 183.167,118.5 203.5,118.5C 203.5,98.5 203.5,78.5 203.5,58.5C 204.833,58.5 206.167,58.5 207.5,58.5C 207.5,58.8333 207.5,59.1667 207.5,59.5C 206.833,59.5 206.167,59.5 205.5,59.5C 204.67,110.137 204.337,160.804 204.5,211.5C 204.501,221.856 205.168,231.856 206.5,241.5C 206.5,241.833 206.5,242.167 206.5,242.5C 204.513,261.137 203.846,280.137 204.5,299.5C 205.791,299.263 206.791,299.596 207.5,300.5C 206.213,301.871 205.547,303.705 205.5,306C 206.064,314.192 206.73,322.359 207.5,330.5C 205.824,331.183 205.157,332.517 205.5,334.5C 204.506,344.653 204.172,354.986 204.5,365.5C 224.833,365.5 245.167,365.5 265.5,365.5C 265.5,364.5 265.5,363.5 265.5,362.5C 266.167,362.5 266.5,362.833 266.5,363.5C 276.311,364.832 286.477,365.499 297,365.5C 307.523,365.499 317.689,364.832 327.5,363.5C 327.833,363.5 328.167,363.5 328.5,363.5C 338.311,364.832 348.477,365.499 359,365.5C 369.523,365.499 379.689,364.832 389.5,363.5C 389.833,363.5 390.167,363.5 390.5,363.5C 400.311,364.832 410.477,365.499 421,365.5C 431.523,365.499 441.689,364.832 451.5,363.5C 451.833,363.5 452.167,363.5 452.5,363.5C 472.473,365.488 492.806,366.155 513.5,365.5C 513.5,345.167 513.5,324.833 513.5,304.5C 493.167,304.5 472.833,304.5 452.5,304.5C 452.5,323.167 452.5,341.833 452.5,360.5C 434.659,360.83 416.992,360.497 399.5,359.5C 416.833,359.5 434.167,359.5 451.5,359.5C 451.5,341.167 451.5,322.833 451.5,304.5C 431.167,304.5 410.833,304.5 390.5,304.5C 390.5,322.833 390.5,341.167 390.5,359.5C 390.167,359.5 389.833,359.5 389.5,359.5C 389.5,341.167 389.5,322.833 389.5,304.5C 369.167,304.5 348.833,304.5 328.5,304.5C 328.5,322.833 328.5,341.167 328.5,359.5C 328.167,359.5 327.833,359.5 327.5,359.5C 327.5,341.167 327.5,322.833 327.5,304.5C 307.167,304.5 286.833,304.5 266.5,304.5C 266.5,322.5 266.5,340.5 266.5,358.5C 266.167,358.5 265.833,358.5 265.5,358.5C 265.5,340.5 265.5,322.5 265.5,304.5C 247.5,304.5 229.5,304.5 211.5,304.5C 211.5,305.833 211.5,307.167 211.5,308.5C 210.549,307.081 210.216,305.415 210.5,303.5C 228.833,303.5 247.167,303.5 265.5,303.5C 265.5,283.167 265.5,262.833 265.5,242.5C 246.833,242.5 228.167,242.5 209.5,242.5C 209.5,244.167 209.5,245.833 209.5,247.5C 208.504,231.675 208.17,215.675 208.5,199.5C 209.496,213.323 209.829,227.323 209.5,241.5C 228.167,241.5 246.833,241.5 265.5,241.5C 265.5,221.5 265.5,201.5 265.5,181.5C 246.5,181.5 227.5,181.5 208.5,181.5C 208.5,181.167 208.5,180.833 208.5,180.5C 227.5,180.5 246.5,180.5 265.5,180.5C 265.5,160.167 265.5,139.833 265.5,119.5C 246.5,119.5 227.5,119.5 208.5,119.5C 208.5,130.167 208.5,140.833 208.5,151.5C 207.505,140.679 207.172,129.679 207.5,118.5C 226.833,118.5 246.167,118.5 265.5,118.5C 265.5,98.5 265.5,78.5 265.5,58.5C 265.833,58.5 266.167,58.5 266.5,58.5C 266.5,78.5 266.5,98.5 266.5,118.5C 286.833,118.5 307.167,118.5 327.5,118.5C 327.5,98.5 327.5,78.5 327.5,58.5C 327.833,58.5 328.167,58.5 328.5,58.5C 328.5,78.5 328.5,98.5 328.5,118.5C 348.833,118.5 369.167,118.5 389.5,118.5C 389.5,98.5 389.5,78.5 389.5,58.5C 389.833,58.5 390.167,58.5 390.5,58.5C 390.5,78.5 390.5,98.5 390.5,118.5C 410.833,118.5 431.167,118.5 451.5,118.5C 451.5,98.5 451.5,78.5 451.5,58.5C 451.833,58.5 452.167,58.5 452.5,58.5C 452.5,78.5 452.5,98.5 452.5,118.5C 529.833,118.833 529.833,119.167 452.5,119.5C 452.5,139.833 452.5,160.167 452.5,180.5C 472.833,180.5 493.167,180.5 513.5,180.5C 513.833,115.167 514.167,115.167 514.5,180.5C 534.833,180.5 555.167,180.5 575.5,180.5C 575.5,180.833 575.5,181.167 575.5,181.5C 555.167,181.5 534.833,181.5 514.5,181.5C 514.5,201.5 514.5,221.5 514.5,241.5C 534.833,241.5 555.167,241.5 575.5,241.5C 575.5,241.833 575.5,242.167 575.5,242.5C 555.167,242.5 534.833,242.5 514.5,242.5C 514.5,262.833 514.5,283.167 514.5,303.5C 534.833,303.5 555.167,303.5 575.5,303.5C 575.5,303.833 575.5,304.167 575.5,304.5C 555.167,304.5 534.833,304.5 514.5,304.5C 514.5,324.833 514.5,345.167 514.5,365.5C 534.833,365.5 555.167,365.5 575.5,365.5C 575.5,365.833 575.5,366.167 575.5,366.5C 555.167,366.5 534.833,366.5 514.5,366.5C 514.5,386.5 514.5,406.5 514.5,426.5C 514.167,426.5 513.833,426.5 513.5,426.5C 513.5,406.5 513.5,386.5 513.5,366.5C 493.167,366.5 472.833,366.5 452.5,366.5C 452.5,386.5 452.5,406.5 452.5,426.5C 452.167,426.5 451.833,426.5 451.5,426.5C 451.5,406.5 451.5,386.5 451.5,366.5C 431.167,366.5 410.833,366.5 390.5,366.5C 390.5,386.5 390.5,406.5 390.5,426.5C 390.167,426.5 389.833,426.5 389.5,426.5C 389.5,406.5 389.5,386.5 389.5,366.5C 369.167,366.5 348.833,366.5 328.5,366.5C 328.5,386.5 328.5,406.5 328.5,426.5C 328.167,426.5 327.833,426.5 327.5,426.5C 327.5,406.5 327.5,386.5 327.5,366.5C 307.167,366.5 286.833,366.5 266.5,366.5C 266.5,386.5 266.5,406.5 266.5,426.5C 266.167,426.5 265.833,426.5 265.5,426.5C 265.5,406.5 265.5,386.5 265.5,366.5C 245.167,366.5 224.833,366.5 204.5,366.5C 204.5,386.5 204.5,406.5 204.5,426.5C 204.167,426.5 203.833,426.5 203.5,426.5C 203.5,406.5 203.5,386.5 203.5,366.5C 183.167,366.5 162.833,366.5 142.5,366.5C 142.5,386.5 142.5,406.5 142.5,426.5C 142.167,426.5 141.833,426.5 141.5,426.5C 141.5,406.5 141.5,386.5 141.5,366.5C 121.167,366.5 100.833,366.5 80.5,366.5C 80.5,366.167 80.5,365.833 80.5,365.5C 100.833,365.5 121.167,365.5 141.5,365.5C 141.5,345.167 141.5,324.833 141.5,304.5C 121.167,304.5 100.833,304.5 80.5,304.5C 80.5,304.167 80.5,303.833 80.5,303.5C 100.833,303.5 121.167,303.5 141.5,303.5C 141.5,283.167 141.5,262.833 141.5,242.5C 121.167,242.5 100.833,242.5 80.5,242.5C 80.5,242.167 80.5,241.833 80.5,241.5C 100.833,241.5 121.167,241.5 141.5,241.5C 141.5,221.5 141.5,201.5 141.5,181.5C 121.167,181.5 100.833,181.5 80.5,181.5C 80.5,181.167 80.5,180.833 80.5,180.5C 100.833,180.5 121.167,180.5 141.5,180.5C 141.5,160.167 141.5,139.833 141.5,119.5C 121.167,119.5 100.833,119.5 80.5,119.5C 80.5,119.167 80.5,118.833 80.5,118.5C 100.833,118.5 121.167,118.5 141.5,118.5C 141.5,98.5 141.5,78.5 141.5,58.5 Z"/></g>
<g><path style="opacity:1" fill="#fefefe" d="M 575.5,366.5 C 575.5,386.5 575.5,406.5 575.5,426.5C 555.167,426.5 534.833,426.5 514.5,426.5C 514.5,406.5 514.5,386.5 514.5,366.5C 534.833,366.5 555.167,366.5 575.5,366.5 Z"/></g>
<g><path style="opacity:1" fill="#fefefe" d="M 513.5,426.5 C 493.167,426.5 472.833,426.5 452.5,426.5C 452.5,406.5 452.5,386.5 452.5,366.5C 472.833,366.5 493.167,366.5 513.5,366.5C 513.5,386.5 513.5,406.5 513.5,426.5 Z"/></g>
<g><path style="opacity:1" fill="#fefefe" d="M 451.5,426.5 C 431.167,426.5 410.833,426.5 390.5,426.5C 390.5,406.5 390.5,386.5 390.5,366.5C 410.833,366.5 431.167,366.5 451.5,366.5C 451.5,386.5 451.5,406.5 451.5,426.5 Z"/></g>
<g><path style="opacity:1" fill="#fefefe" d="M 389.5,426.5 C 369.167,426.5 348.833,426.5 328.5,426.5C 328.5,406.5 328.5,386.5 328.5,366.5C 348.833,366.5 369.167,366.5 389.5,366.5C 389.5,386.5 389.5,406.5 389.5,426.5 Z"/></g>
<g><path style="opacity:1" fill="#fefefe" d="M 327.5,426.5 C 307.167,426.5 286.833,426.5 266.5,426.5C 266.5,406.5 266.5,386.5 266.5,366.5C 286.833,366.5 307.167,366.5 327.5,366.5C 327.5,386.5 327.5,406.5 327.5,426.5 Z"/></g>
<g><path style="opacity:1" fill="#fefefe" d="M 265.5,426.5 C 245.167,426.5 224.833,426.5 204.5,426.5C 204.5,406.5 204.5,386.5 204.5,366.5C 224.833,366.5 245.167,366.5 265.5,366.5C 265.5,386.5 265.5,406.5 265.5,426.5 Z"/></g>
<g><path style="opacity:1" fill="#fefefe" d="M 203.5,426.5 C 183.167,426.5 162.833,426.5 142.5,426.5C 142.5,406.5 142.5,386.5 142.5,366.5C 162.833,366.5 183.167,366.5 203.5,366.5C 203.5,386.5 203.5,406.5 203.5,426.5 Z"/></g>
<g><path style="opacity:1" fill="#fefefe" d="M 80.5,366.5 C 100.833,366.5 121.167,366.5 141.5,366.5C 141.5,386.5 141.5,406.5 141.5,426.5C 121.167,426.5 100.833,426.5 80.5,426.5C 80.5,406.5 80.5,386.5 80.5,366.5 Z"/></g>
<g><path style="opacity:1" fill="#fbfcfc" d="M 390.5,363.5 C 410.833,363.5 431.167,363.5 451.5,363.5C 441.689,364.832 431.523,365.499 421,365.5C 410.477,365.499 400.311,364.832 390.5,363.5 Z"/></g>
<g><path style="opacity:1" fill="#fcfbfb" d="M 328.5,363.5 C 348.833,363.5 369.167,363.5 389.5,363.5C 379.689,364.832 369.523,365.499 359,365.5C 348.477,365.499 338.311,364.832 328.5,363.5 Z"/></g>
<g><path style="opacity:1" fill="#fcfcfc" d="M 266.5,363.5 C 286.833,363.5 307.167,363.5 327.5,363.5C 317.689,364.832 307.523,365.499 297,365.5C 286.477,365.499 276.311,364.832 266.5,363.5 Z"/></g>
<g><path style="opacity:1" fill="#2e5c82" d="M 335.5,359.5 C 353.5,359.5 371.5,359.5 389.5,359.5C 389.833,359.5 390.167,359.5 390.5,359.5C 393.5,359.5 396.5,359.5 399.5,359.5C 416.992,360.497 434.659,360.83 452.5,360.5C 452.5,360.833 452.5,361.167 452.5,361.5C 394.664,361.832 336.998,361.499 279.5,360.5C 298.341,360.83 317.007,360.497 335.5,359.5 Z"/></g>
<g><path style="opacity:1" fill="#2918f5" d="M 217.5,349.5 C 222.234,353.03 227.567,355.197 233.5,356C 244.125,357.331 254.792,358.164 265.5,358.5C 265.833,358.5 266.167,358.5 266.5,358.5C 286.811,359.44 307.144,359.773 327.5,359.5C 327.833,359.5 328.167,359.5 328.5,359.5C 330.833,359.5 333.167,359.5 335.5,359.5C 317.007,360.497 298.341,360.83 279.5,360.5C 259.836,361.703 240.503,359.869 221.5,355C 219.536,353.549 218.203,351.716 217.5,349.5 Z"/></g>
<g><path style="opacity:1" fill="#f0e2e5" d="M 208.5,337.5 C 209.929,341.786 211.929,345.786 214.5,349.5C 215.833,351.5 217.167,353.5 218.5,355.5C 215.805,355.067 213.638,353.734 212,351.5C 209.579,347.149 208.412,342.483 208.5,337.5 Z"/></g>
<g><path style="opacity:1" fill="#fcfafa" d="M 205.5,334.5 C 206.05,340.752 207.55,346.752 210,352.5C 214.218,356.854 219.385,359.187 225.5,359.5C 238.67,362.136 252.003,363.136 265.5,362.5C 265.5,363.5 265.5,364.5 265.5,365.5C 245.167,365.5 224.833,365.5 204.5,365.5C 204.172,354.986 204.506,344.653 205.5,334.5 Z"/></g>
<g><path style="opacity:1" fill="#f73529" d="M 207.5,330.5 C 207.993,332.806 208.326,335.139 208.5,337.5C 208.412,342.483 209.579,347.149 212,351.5C 213.638,353.734 215.805,355.067 218.5,355.5C 221.032,356.596 223.365,357.929 225.5,359.5C 219.385,359.187 214.218,356.854 210,352.5C 207.55,346.752 206.05,340.752 205.5,334.5C 205.157,332.517 205.824,331.183 207.5,330.5 Z"/></g>
<g><path style="opacity:1" fill="#8fb9a4" d="M 208.5,313.5 C 209.747,319.63 210.414,325.963 210.5,332.5C 209.004,326.395 208.337,320.062 208.5,313.5 Z"/></g>
<g><path style="opacity:1" fill="#342bfa" d="M 207.5,300.5 C 207.185,304.371 207.518,308.038 208.5,311.5C 208.5,312.167 208.5,312.833 208.5,313.5C 208.337,320.062 209.004,326.395 210.5,332.5C 211.362,338.283 212.696,343.95 214.5,349.5C 211.929,345.786 209.929,341.786 208.5,337.5C 208.326,335.139 207.993,332.806 207.5,330.5C 206.73,322.359 206.064,314.192 205.5,306C 205.547,303.705 206.213,301.871 207.5,300.5 Z"/></g>
<g><path style="opacity:1" fill="#fefefe" d="M 452.5,363.5 C 452.5,362.833 452.5,362.167 452.5,361.5C 452.5,361.167 452.5,360.833 452.5,360.5C 452.5,341.833 452.5,323.167 452.5,304.5C 472.833,304.5 493.167,304.5 513.5,304.5C 513.5,324.833 513.5,345.167 513.5,365.5C 492.806,366.155 472.473,365.488 452.5,363.5 Z"/></g>
<g><path style="opacity:1" fill="#fefefe" d="M 399.5,359.5 C 396.5,359.5 393.5,359.5 390.5,359.5C 390.5,341.167 390.5,322.833 390.5,304.5C 410.833,304.5 431.167,304.5 451.5,304.5C 451.5,322.833 451.5,341.167 451.5,359.5C 434.167,359.5 416.833,359.5 399.5,359.5 Z"/></g>
<g><path style="opacity:1" fill="#fdfdfe" d="M 265.5,358.5 C 254.792,358.164 244.125,357.331 233.5,356C 227.567,355.197 222.234,353.03 217.5,349.5C 212.684,336.384 210.684,322.717 211.5,308.5C 211.5,307.167 211.5,305.833 211.5,304.5C 229.5,304.5 247.5,304.5 265.5,304.5C 265.5,322.5 265.5,340.5 265.5,358.5 Z"/></g>
<g><path style="opacity:1" fill="#fefefe" d="M 142.5,304.5 C 162.833,304.5 183.167,304.5 203.5,304.5C 203.5,324.833 203.5,345.167 203.5,365.5C 183.167,365.5 162.833,365.5 142.5,365.5C 142.5,345.167 142.5,324.833 142.5,304.5 Z"/></g>
<g><path style="opacity:1" fill="#fefefe" d="M 575.5,304.5 C 575.5,324.833 575.5,345.167 575.5,365.5C 555.167,365.5 534.833,365.5 514.5,365.5C 514.5,345.167 514.5,324.833 514.5,304.5C 534.833,304.5 555.167,304.5 575.5,304.5 Z"/></g>
<g><path style="opacity:1" fill="#fefefe" d="M 389.5,359.5 C 371.5,359.5 353.5,359.5 335.5,359.5C 333.167,359.5 330.833,359.5 328.5,359.5C 328.5,341.167 328.5,322.833 328.5,304.5C 348.833,304.5 369.167,304.5 389.5,304.5C 389.5,322.833 389.5,341.167 389.5,359.5 Z"/></g>
<g><path style="opacity:1" fill="#fefdfe" d="M 327.5,359.5 C 307.144,359.773 286.811,359.44 266.5,358.5C 266.5,340.5 266.5,322.5 266.5,304.5C 286.833,304.5 307.167,304.5 327.5,304.5C 327.5,322.833 327.5,341.167 327.5,359.5 Z"/></g>
<g><path style="opacity:1" fill="#fefefe" d="M 80.5,304.5 C 100.833,304.5 121.167,304.5 141.5,304.5C 141.5,324.833 141.5,345.167 141.5,365.5C 121.167,365.5 100.833,365.5 80.5,365.5C 80.5,345.167 80.5,324.833 80.5,304.5 Z"/></g>
<g><path style="opacity:1" fill="#eef4ef" d="M 206.5,242.5 C 207.319,265.486 207.986,288.486 208.5,311.5C 207.518,308.038 207.185,304.371 207.5,300.5C 206.791,299.596 205.791,299.263 204.5,299.5C 203.846,280.137 204.513,261.137 206.5,242.5 Z"/></g>
<g><path style="opacity:1" fill="#fefefe" d="M 575.5,242.5 C 575.5,262.833 575.5,283.167 575.5,303.5C 555.167,303.5 534.833,303.5 514.5,303.5C 514.5,283.167 514.5,262.833 514.5,242.5C 534.833,242.5 555.167,242.5 575.5,242.5 Z"/></g>
<g><path style="opacity:1" fill="#fefefe" d="M 452.5,242.5 C 472.833,242.5 493.167,242.5 513.5,242.5C 513.5,262.833 513.5,283.167 513.5,303.5C 493.167,303.5 472.833,303.5 452.5,303.5C 452.5,283.167 452.5,262.833 452.5,242.5 Z"/></g>
<g><path style="opacity:1" fill="#fefefe" d="M 390.5,242.5 C 410.833,242.5 431.167,242.5 451.5,242.5C 451.5,262.833 451.5,283.167 451.5,303.5C 431.167,303.5 410.833,303.5 390.5,303.5C 390.5,283.167 390.5,262.833 390.5,242.5 Z"/></g>
<g><path style="opacity:1" fill="#fefefe" d="M 328.5,242.5 C 348.833,242.5 369.167,242.5 389.5,242.5C 389.5,262.833 389.5,283.167 389.5,303.5C 369.167,303.5 348.833,303.5 328.5,303.5C 328.5,283.167 328.5,262.833 328.5,242.5 Z"/></g>
<g><path style="opacity:1" fill="#fefefe" d="M 266.5,242.5 C 286.833,242.5 307.167,242.5 327.5,242.5C 327.5,262.833 327.5,283.167 327.5,303.5C 307.167,303.5 286.833,303.5 266.5,303.5C 266.5,283.167 266.5,262.833 266.5,242.5 Z"/></g>
<g><path style="opacity:1" fill="#fefefe" d="M 210.5,303.5 C 209.611,284.85 209.278,266.183 209.5,247.5C 209.5,245.833 209.5,244.167 209.5,242.5C 228.167,242.5 246.833,242.5 265.5,242.5C 265.5,262.833 265.5,283.167 265.5,303.5C 247.167,303.5 228.833,303.5 210.5,303.5 Z"/></g>
<g><path style="opacity:1" fill="#fefefe" d="M 142.5,242.5 C 162.833,242.5 183.167,242.5 203.5,242.5C 203.5,262.833 203.5,283.167 203.5,303.5C 183.167,303.5 162.833,303.5 142.5,303.5C 142.5,283.167 142.5,262.833 142.5,242.5 Z"/></g>
<g><path style="opacity:1" fill="#fefefe" d="M 80.5,242.5 C 100.833,242.5 121.167,242.5 141.5,242.5C 141.5,262.833 141.5,283.167 141.5,303.5C 121.167,303.5 100.833,303.5 80.5,303.5C 80.5,283.167 80.5,262.833 80.5,242.5 Z"/></g>
<g><path style="opacity:1" fill="#fefefe" d="M 452.5,181.5 C 472.833,181.5 493.167,181.5 513.5,181.5C 513.5,201.5 513.5,221.5 513.5,241.5C 493.167,241.5 472.833,241.5 452.5,241.5C 452.5,221.5 452.5,201.5 452.5,181.5 Z"/></g>
<g><path style="opacity:1" fill="#fefefe" d="M 575.5,181.5 C 575.5,201.5 575.5,221.5 575.5,241.5C 555.167,241.5 534.833,241.5 514.5,241.5C 514.5,221.5 514.5,201.5 514.5,181.5C 534.833,181.5 555.167,181.5 575.5,181.5 Z"/></g>
<g><path style="opacity:1" fill="#fefefe" d="M 390.5,181.5 C 410.833,181.5 431.167,181.5 451.5,181.5C 451.5,201.5 451.5,221.5 451.5,241.5C 431.167,241.5 410.833,241.5 390.5,241.5C 390.5,221.5 390.5,201.5 390.5,181.5 Z"/></g>
<g><path style="opacity:1" fill="#fefefe" d="M 328.5,181.5 C 348.833,181.5 369.167,181.5 389.5,181.5C 389.5,201.5 389.5,221.5 389.5,241.5C 369.167,241.5 348.833,241.5 328.5,241.5C 328.5,221.5 328.5,201.5 328.5,181.5 Z"/></g>
<g><path style="opacity:1" fill="#fefefe" d="M 266.5,181.5 C 286.833,181.5 307.167,181.5 327.5,181.5C 327.5,201.5 327.5,221.5 327.5,241.5C 307.167,241.5 286.833,241.5 266.5,241.5C 266.5,221.5 266.5,201.5 266.5,181.5 Z"/></g>
<g><path style="opacity:1" fill="#fefefe" d="M 208.5,181.5 C 227.5,181.5 246.5,181.5 265.5,181.5C 265.5,201.5 265.5,221.5 265.5,241.5C 246.833,241.5 228.167,241.5 209.5,241.5C 209.829,227.323 209.496,213.323 208.5,199.5C 208.5,193.5 208.5,187.5 208.5,181.5 Z"/></g>
<g><path style="opacity:1" fill="#fefefe" d="M 142.5,181.5 C 162.833,181.5 183.167,181.5 203.5,181.5C 203.5,201.5 203.5,221.5 203.5,241.5C 183.167,241.5 162.833,241.5 142.5,241.5C 142.5,221.5 142.5,201.5 142.5,181.5 Z"/></g>
<g><path style="opacity:1" fill="#fefefe" d="M 80.5,181.5 C 100.833,181.5 121.167,181.5 141.5,181.5C 141.5,201.5 141.5,221.5 141.5,241.5C 121.167,241.5 100.833,241.5 80.5,241.5C 80.5,221.5 80.5,201.5 80.5,181.5 Z"/></g>
<g><path style="opacity:1" fill="#358e2a" d="M 205.5,59.5 C 206.167,59.5 206.833,59.5 207.5,59.5C 207.5,79.1667 207.5,98.8333 207.5,118.5C 207.172,129.679 207.505,140.679 208.5,151.5C 208.5,161.167 208.5,170.833 208.5,180.5C 208.5,180.833 208.5,181.167 208.5,181.5C 208.5,187.5 208.5,193.5 208.5,199.5C 208.17,215.675 208.504,231.675 209.5,247.5C 209.278,266.183 209.611,284.85 210.5,303.5C 210.216,305.415 210.549,307.081 211.5,308.5C 210.684,322.717 212.684,336.384 217.5,349.5C 218.203,351.716 219.536,353.549 221.5,355C 240.503,359.869 259.836,361.703 279.5,360.5C 336.998,361.499 394.664,361.832 452.5,361.5C 452.5,362.167 452.5,362.833 452.5,363.5C 452.167,363.5 451.833,363.5 451.5,363.5C 431.167,363.5 410.833,363.5 390.5,363.5C 390.167,363.5 389.833,363.5 389.5,363.5C 369.167,363.5 348.833,363.5 328.5,363.5C 328.167,363.5 327.833,363.5 327.5,363.5C 307.167,363.5 286.833,363.5 266.5,363.5C 266.5,362.833 266.167,362.5 265.5,362.5C 252.003,363.136 238.67,362.136 225.5,359.5C 223.365,357.929 221.032,356.596 218.5,355.5C 217.167,353.5 215.833,351.5 214.5,349.5C 212.696,343.95 211.362,338.283 210.5,332.5C 210.414,325.963 209.747,319.63 208.5,313.5C 208.5,312.833 208.5,312.167 208.5,311.5C 207.986,288.486 207.319,265.486 206.5,242.5C 206.5,242.167 206.5,241.833 206.5,241.5C 206.262,180.833 205.929,120.166 205.5,59.5 Z"/></g>
<g><path style="opacity:1" fill="#e6f0e5" d="M 205.5,59.5 C 205.929,120.166 206.262,180.833 206.5,241.5C 205.168,231.856 204.501,221.856 204.5,211.5C 204.337,160.804 204.67,110.137 205.5,59.5 Z"/></g>
<g><path style="opacity:1" fill="#fefefe" d="M 390.5,119.5 C 410.833,119.5 431.167,119.5 451.5,119.5C 451.5,139.833 451.5,160.167 451.5,180.5C 431.167,180.5 410.833,180.5 390.5,180.5C 390.5,160.167 390.5,139.833 390.5,119.5 Z"/></g>
<g><path style="opacity:1" fill="#fefefe" d="M 328.5,119.5 C 348.833,119.5 369.167,119.5 389.5,119.5C 389.5,139.833 389.5,160.167 389.5,180.5C 369.167,180.5 348.833,180.5 328.5,180.5C 328.5,160.167 328.5,139.833 328.5,119.5 Z"/></g>
<g><path style="opacity:1" fill="#fefefe" d="M 266.5,119.5 C 286.833,119.5 307.167,119.5 327.5,119.5C 327.5,139.833 327.5,160.167 327.5,180.5C 307.167,180.5 286.833,180.5 266.5,180.5C 266.5,160.167 266.5,139.833 266.5,119.5 Z"/></g>
<g><path style="opacity:1" fill="#fefefe" d="M 208.5,180.5 C 208.5,170.833 208.5,161.167 208.5,151.5C 208.5,140.833 208.5,130.167 208.5,119.5C 227.5,119.5 246.5,119.5 265.5,119.5C 265.5,139.833 265.5,160.167 265.5,180.5C 246.5,180.5 227.5,180.5 208.5,180.5 Z"/></g>
<g><path style="opacity:1" fill="#fefefe" d="M 142.5,119.5 C 162.833,119.5 183.167,119.5 203.5,119.5C 203.5,139.833 203.5,160.167 203.5,180.5C 183.167,180.5 162.833,180.5 142.5,180.5C 142.5,160.167 142.5,139.833 142.5,119.5 Z"/></g>
<g><path style="opacity:1" fill="#fefefe" d="M 80.5,119.5 C 100.833,119.5 121.167,119.5 141.5,119.5C 141.5,139.833 141.5,160.167 141.5,180.5C 121.167,180.5 100.833,180.5 80.5,180.5C 80.5,160.167 80.5,139.833 80.5,119.5 Z"/></g>
<g><path style="opacity:1" fill="#fcfcfc" d="M 452.5,58.5 C 493.5,58.5 534.5,58.5 575.5,58.5C 575.5,99.1667 575.5,139.833 575.5,180.5C 555.167,180.5 534.833,180.5 514.5,180.5C 514.167,115.167 513.833,115.167 513.5,180.5C 493.167,180.5 472.833,180.5 452.5,180.5C 452.5,160.167 452.5,139.833 452.5,119.5C 529.833,119.167 529.833,118.833 452.5,118.5C 452.5,98.5 452.5,78.5 452.5,58.5 Z"/></g>
<g><path style="opacity:1" fill="#454545" d="M 556.5,113.5 C 557.919,112.549 559.585,112.216 561.5,112.5C 561.292,114.92 561.626,117.253 562.5,119.5C 561.278,122.089 559.278,122.923 556.5,122C 561.214,120.944 561.547,119.277 557.5,117C 561.363,115.186 561.03,114.02 556.5,113.5 Z"/></g>
<g><path style="opacity:1" fill="#028003" d="M 514.5,116.5 C 524.522,116.168 534.522,116.501 544.5,117.5C 539.5,117.833 534.5,118.167 529.5,118.5C 524.119,118.494 519.119,117.828 514.5,116.5 Z"/></g>
<g><path style="opacity:1" fill="#363636" d="M 555.5,91.5 C 562.737,92.2724 563.403,95.1057 557.5,100C 558.833,100.333 560.167,100.667 561.5,101C 559.421,101.808 557.421,101.641 555.5,100.5C 557.167,98.5 558.833,96.5 560.5,94.5C 559.597,92.3796 558.263,92.0462 556.5,93.5C 555.702,93.0431 555.369,92.3764 555.5,91.5 Z"/></g>
<g><path style="opacity:1" fill="#0302fd" d="M 514.5,95.5 C 524.522,95.1681 534.522,95.5015 544.5,96.5C 539.5,96.8333 534.5,97.1667 529.5,97.5C 524.119,97.4942 519.119,96.8275 514.5,95.5 Z"/></g>
<g><path style="opacity:1" fill="#fd0001" d="M 514.5,74.5 C 524.522,74.1681 534.522,74.5015 544.5,75.5C 539.5,75.8333 534.5,76.1667 529.5,76.5C 524.119,76.4942 519.119,75.8275 514.5,74.5 Z"/></g>
<g><path style="opacity:1" fill="#050505" d="M 557.5,71.5 C 557.56,70.9569 557.893,70.6236 558.5,70.5C 558.961,73.9551 559.961,77.1218 561.5,80C 559.833,80.6667 558.167,80.6667 556.5,80C 557.684,78.8197 558.351,77.3197 558.5,75.5C 558.489,73.9549 558.156,72.6216 557.5,71.5 Z"/></g>
<g><path style="opacity:1" fill="#fefefe" d="M 390.5,58.5 C 410.833,58.5 431.167,58.5 451.5,58.5C 451.5,78.5 451.5,98.5 451.5,118.5C 431.167,118.5 410.833,118.5 390.5,118.5C 390.5,98.5 390.5,78.5 390.5,58.5 Z"/></g>
<g><path style="opacity:1" fill="#fefefe" d="M 328.5,58.5 C 348.833,58.5 369.167,58.5 389.5,58.5C 389.5,78.5 389.5,98.5 389.5,118.5C 369.167,118.5 348.833,118.5 328.5,118.5C 328.5,98.5 328.5,78.5 328.5,58.5 Z"/></g>
<g><path style="opacity:1" fill="#fefefe" d="M 266.5,58.5 C 286.833,58.5 307.167,58.5 327.5,58.5C 327.5,78.5 327.5,98.5 327.5,118.5C 307.167,118.5 286.833,118.5 266.5,118.5C 266.5,98.5 266.5,78.5 266.5,58.5 Z"/></g>
<g><path style="opacity:1" fill="#fefefe" d="M 207.5,58.5 C 226.833,58.5 246.167,58.5 265.5,58.5C 265.5,78.5 265.5,98.5 265.5,118.5C 246.167,118.5 226.833,118.5 207.5,118.5C 207.5,98.8333 207.5,79.1667 207.5,59.5C 207.5,59.1667 207.5,58.8333 207.5,58.5 Z"/></g>
<g><path style="opacity:1" fill="#fefefe" d="M 142.5,58.5 C 162.833,58.5 183.167,58.5 203.5,58.5C 203.5,78.5 203.5,98.5 203.5,118.5C 183.167,118.5 162.833,118.5 142.5,118.5C 142.5,98.5 142.5,78.5 142.5,58.5 Z"/></g>
<g><path style="opacity:1" fill="#fefefe" d="M 141.5,58.5 C 141.5,78.5 141.5,98.5 141.5,118.5C 121.167,118.5 100.833,118.5 80.5,118.5C 80.5,98.5 80.5,78.5 80.5,58.5C 100.833,58.5 121.167,58.5 141.5,58.5 Z"/></g>
<g><path style="opacity:1" fill="#414141" d="M 57.5,423.5 C 59.3442,424.204 59.8442,425.537 59,427.5C 57.8333,428.667 56.6667,429.833 55.5,431C 56.8333,431.333 58.1667,431.667 59.5,432C 52.8985,433.074 52.0651,431.574 57,427.5C 57.49,426.207 57.6567,424.873 57.5,423.5 Z"/></g>
<g><path style="opacity:1" fill="#3b3b3b" d="M 66.5,423.5 C 67.7479,424.334 68.4146,425.667 68.5,427.5C 68.3451,432.75 66.1785,433.75 62,430.5C 61.0561,427.653 61.5561,425.153 63.5,423C 64.7494,422.26 65.7494,422.427 66.5,423.5 Z"/></g>
<g><path style="opacity:1" fill="#ececec" d="M 66.5,423.5 C 68.1011,426.423 67.7678,429.09 65.5,431.5C 64.0089,430.652 63.3422,429.319 63.5,427.5C 63.1104,425.018 64.1104,423.685 66.5,423.5 Z"/></g>
<g><path style="opacity:1" fill="#252525" d="M 379.5,438.5 C 381.265,437.539 383.265,437.205 385.5,437.5C 385.181,441.136 384.015,444.469 382,447.5C 382.063,444.513 382.897,441.68 384.5,439C 382.866,438.506 381.199,438.34 379.5,438.5 Z"/></g>
<g><path style="opacity:1" fill="#373737" d="M 150.5,437.5 C 152.199,437.34 153.866,437.506 155.5,438C 151.732,439.177 151.899,440.344 156,441.5C 157.5,446.667 155.667,448.5 150.5,447C 157.056,445.265 157.056,443.431 150.5,441.5C 150.5,440.167 150.5,438.833 150.5,437.5 Z"/></g>
<g><path style="opacity:1" fill="#343434" d="M 255.5,437.5 C 262.236,437.735 263.236,440.401 258.5,445.5C 259.376,446.251 260.376,446.751 261.5,447C 259.421,447.808 257.421,447.641 255.5,446.5C 257.167,444.5 258.833,442.5 260.5,440.5C 259.38,438.404 257.88,438.07 256,439.5C 255.536,438.906 255.369,438.239 255.5,437.5 Z"/></g>
<g><path style="opacity:1" fill="#3c3c3c" d="M 569.5,437.5 C 571.527,437.338 573.527,437.505 575.5,438C 570.46,438.744 570.293,439.91 575,441.5C 576.5,446.667 574.667,448.5 569.5,447C 570.833,446.667 572.167,446.333 573.5,446C 574.676,442.691 573.343,441.191 569.5,441.5C 569.5,440.167 569.5,438.833 569.5,437.5 Z"/></g>
<g><path style="opacity:1" fill="#1a1a1a" d="M 75.5,437.5 C 81.3239,437.347 81.6572,438.013 76.5,439.5C 80.374,441.002 80.0407,441.669 75.5,441.5C 75.5,440.167 75.5,438.833 75.5,437.5 Z"/></g>
<g><path style="opacity:1" fill="#e0e0e0" d="M 208.5,438.5 C 209.496,438.414 210.329,438.748 211,439.5C 211.497,441.81 211.663,444.143 211.5,446.5C 210.5,446.5 209.5,446.5 208.5,446.5C 207.167,443.833 207.167,441.167 208.5,438.5 Z"/></g>
<g><path style="opacity:1" fill="#090909" d="M 500.5,438.5 C 501.209,437.596 502.209,437.263 503.5,437.5C 502.989,441.03 503.656,444.196 505.5,447C 503.833,447.667 502.167,447.667 500.5,447C 501.684,445.82 502.351,444.32 502.5,442.5C 502.415,440.667 501.748,439.334 500.5,438.5 Z"/></g>
<g><path style="opacity:1" fill="#1d1d1d" d="M 438.5,437.5 C 439.5,437.5 440.5,437.5 441.5,437.5C 441.5,440.5 441.5,443.5 441.5,446.5C 444.263,447.455 443.263,447.622 438.5,447C 439.658,445.991 440.325,444.658 440.5,443C 440.079,441.011 439.412,439.177 438.5,437.5 Z"/></g>
<g><path style="opacity:1" fill="#272727" d="M 521.5,437.5 C 527.324,437.347 527.657,438.013 522.5,439.5C 526.398,440.806 527.398,443.306 525.5,447C 523.833,447.667 522.167,447.667 520.5,447C 524.638,447.218 525.972,445.552 524.5,442C 523.552,441.517 522.552,441.351 521.5,441.5C 521.5,440.167 521.5,438.833 521.5,437.5 Z"/></g>
<g><path style="opacity:1" fill="#252525" d="M 208.5,438.5 C 207.167,441.167 207.167,443.833 208.5,446.5C 207.007,445.688 206.34,444.355 206.5,442.5C 206.34,440.645 207.007,439.312 208.5,438.5 Z"/></g>
<g><path style="opacity:1" fill="#373737" d="M 89.5,437.5 C 95.5477,438.46 96.8811,441.627 93.5,447C 91.8876,447.72 90.3876,447.554 89,446.5C 88.2642,443.408 88.4309,440.408 89.5,437.5 Z"/></g>
<g><path style="opacity:1" fill="#ededed" d="M 90.5,438.5 C 92.8896,438.685 93.8896,440.018 93.5,442.5C 92.0097,447.894 90.6764,447.727 89.5,442C 89.6483,440.744 89.9816,439.577 90.5,438.5 Z"/></g>
<g><path style="opacity:1" fill="#343434" d="M 392.5,437.5 C 398.324,437.347 398.657,438.013 393.5,439.5C 398.348,440.769 399.348,443.269 396.5,447C 394.741,447.798 393.074,447.631 391.5,446.5C 392.582,446.251 393.915,446.085 395.5,446C 397.161,442.85 396.161,441.35 392.5,441.5C 392.5,440.167 392.5,438.833 392.5,437.5 Z"/></g>
<g><path style="opacity:1" fill="#323232" d="M 318.5,437.5 C 324.324,437.347 324.657,438.013 319.5,439.5C 324.348,440.769 325.348,443.269 322.5,447C 320.833,447.667 319.167,447.667 317.5,447C 321.638,447.218 322.972,445.552 321.5,442C 320.552,441.517 319.552,441.351 318.5,441.5C 318.5,440.167 318.5,438.833 318.5,437.5 Z"/></g>
<g><path style="opacity:1" fill="#3b3b3b" d="M 137.5,437.5 C 144.737,438.272 145.403,441.106 139.5,446C 140.833,446.333 142.167,446.667 143.5,447C 136.898,448.074 136.065,446.574 141,442.5C 141.49,441.207 141.657,439.873 141.5,438.5C 140.178,438.33 139.011,438.663 138,439.5C 137.536,438.906 137.369,438.239 137.5,437.5 Z"/></g>
<g><path style="opacity:1" fill="#414141" d="M 195.5,439.5 C 197.077,436.983 198.91,436.983 201,439.5C 202.689,445.466 200.689,447.799 195,446.5C 194.204,443.961 194.371,441.628 195.5,439.5 Z"/></g>
<g><path style="opacity:1" fill="#e7e7e7" d="M 195.5,439.5 C 196.688,438.316 197.855,438.316 199,439.5C 199.667,441.5 199.667,443.5 199,445.5C 198.586,445.957 198.086,446.291 197.5,446.5C 195.829,444.49 195.162,442.157 195.5,439.5 Z"/></g>
<g><path style="opacity:1" fill="#424242" d="M 459.5,439.5 C 461.077,436.983 462.91,436.983 465,439.5C 466.689,445.466 464.689,447.799 459,446.5C 458.204,443.961 458.371,441.628 459.5,439.5 Z"/></g>
<g><path style="opacity:1" fill="#e8e8e8" d="M 459.5,439.5 C 460.688,438.316 461.855,438.316 463,439.5C 463.667,441.5 463.667,443.5 463,445.5C 462.586,445.957 462.086,446.291 461.5,446.5C 459.829,444.49 459.162,442.157 459.5,439.5 Z"/></g>
<g><path style="opacity:1" fill="#3a3a3a" d="M 507.5,437.5 C 514.236,437.735 515.236,440.401 510.5,445.5C 511.376,446.251 512.376,446.751 513.5,447C 511.421,447.808 509.421,447.641 507.5,446.5C 509.167,444.5 510.833,442.5 512.5,440.5C 511.38,438.404 509.88,438.07 508,439.5C 507.536,438.906 507.369,438.239 507.5,437.5 Z"/></g>
<g><path style="opacity:1" fill="#434343" d="M 208.5,438.5 C 211.695,437.323 213.362,438.656 213.5,442.5C 213.584,446.592 211.917,447.925 208.5,446.5C 209.5,446.5 210.5,446.5 211.5,446.5C 211.663,444.143 211.497,441.81 211,439.5C 210.329,438.748 209.496,438.414 208.5,438.5 Z"/></g>
<g><path style="opacity:1" fill="#151515" d="M 562.5,438.5 C 563.209,437.596 564.209,437.263 565.5,437.5C 565.5,440.5 565.5,443.5 565.5,446.5C 568.263,447.455 567.263,447.622 562.5,447C 563.684,445.82 564.351,444.32 564.5,442.5C 564.415,440.667 563.748,439.334 562.5,438.5 Z"/></g>
<g><path style="opacity:1" fill="#262626" d="M 80.5,442.5 C 82.1632,447 80.4965,448.5 75.5,447C 78.9008,447.266 80.5674,445.766 80.5,442.5 Z"/></g>
<g><path style="opacity:1" fill="#333333" d="M 269.5,437.5 C 275.324,437.347 275.657,438.013 270.5,439.5C 275.348,440.769 276.348,443.269 273.5,447C 272.167,447.667 270.833,447.667 269.5,447C 273.13,446.729 274.13,445.062 272.5,442C 271.552,441.517 270.552,441.351 269.5,441.5C 269.5,440.167 269.5,438.833 269.5,437.5 Z"/></g>
<g><path style="opacity:1" fill="#464646" d="M 331.5,437.5 C 336.66,438.68 337.827,441.68 335,446.5C 331.276,448.042 329.443,446.709 329.5,442.5C 329.437,440.486 330.103,438.819 331.5,437.5 Z"/></g>
<g><path style="opacity:1" fill="#f7f7f7" d="M 332.5,438.5 C 334.951,440.916 335.117,443.583 333,446.5C 331.188,443.954 331.022,441.288 332.5,438.5 Z"/></g>
<g><path style="opacity:1" fill="#3a3a3a" d="M 447.5,438.5 C 450.456,437.239 452.123,438.405 452.5,442C 452.388,446.803 450.221,448.303 446,446.5C 445.833,445.333 445.667,444.167 445.5,443C 445.307,440.992 445.974,439.492 447.5,438.5 Z"/></g>
<g><path style="opacity:1" fill="#ededed" d="M 447.5,438.5 C 449.89,438.685 450.89,440.018 450.5,442.5C 449.313,447.752 447.979,447.752 446.5,442.5C 446.846,441.151 447.179,439.817 447.5,438.5 Z"/></g>
<g><path style="opacity:1" fill="#3c3c3c" d="M 583.5,437.5 C 588.989,437.504 590.822,440.171 589,445.5C 586.916,448.033 584.916,448.033 583,445.5C 582.398,442.779 582.565,440.113 583.5,437.5 Z"/></g>
<g><path style="opacity:1" fill="#ebebeb" d="M 584.5,438.5 C 586.89,438.685 587.89,440.018 587.5,442.5C 586.313,447.752 584.979,447.752 583.5,442.5C 583.846,441.151 584.179,439.817 584.5,438.5 Z"/></g>
<g><path style="opacity:1" fill="#3d3d3d" d="M 339.5,458.5 C 341.369,460.889 343.203,460.889 345,458.5C 345.333,460.047 344.833,461.38 343.5,462.5C 346.328,466.198 345.995,466.865 342.5,464.5C 339.005,466.865 338.672,466.198 341.5,462.5C 340.37,461.378 339.703,460.044 339.5,458.5 Z"/></g>
<g><path style="opacity:1" fill="#1e1e1e" d="M 320.5,458.5 C 324.893,458.457 325.226,458.957 321.5,460C 319.682,463.387 320.682,465.387 324.5,466C 322.888,466.72 321.388,466.554 320,465.5C 319.297,463.071 319.463,460.738 320.5,458.5 Z"/></g>
<g><path style="opacity:1" fill="#575757" d="M 327.5,458.5 C 328.404,459.209 328.737,460.209 328.5,461.5C 332.676,460.831 334.009,462.331 332.5,466C 330.866,466.494 329.199,466.66 327.5,466.5C 327.5,463.833 327.5,461.167 327.5,458.5 Z"/></g>
<g><path style="opacity:1" fill="#363636" d="M 310.5,456.5 C 317.628,456.706 319.294,459.873 315.5,466C 309.498,466.993 307.332,464.493 309,458.5C 309.717,457.956 310.217,457.289 310.5,456.5 Z"/></g>
<g><path style="opacity:1" fill="#e8e8e8" d="M 311.5,457.5 C 312.822,457.33 313.989,457.663 315,458.5C 315.667,460.5 315.667,462.5 315,464.5C 311.958,465.986 310.125,464.986 309.5,461.5C 309.752,459.927 310.418,458.594 311.5,457.5 Z"/></g>
</svg>
