<?xml version="1.0" encoding="UTF-8"?>
<!DOCTYPE svg PUBLIC "-//W3C//DTD SVG 1.1//EN" "http://www.w3.org/Graphics/SVG/1.1/DTD/svg11.dtd">
<svg xmlns="http://www.w3.org/2000/svg" version="1.1" width="640px" height="480px" style="shape-rendering:geometricPrecision; text-rendering:geometricPrecision; image-rendering:optimizeQuality; fill-rule:evenodd; clip-rule:evenodd" xmlns:xlink="http://www.w3.org/1999/xlink">
<g><path style="opacity:1" fill="#fefefe" d="M -0.5,-0.5 C 212.833,-0.5 426.167,-0.5 639.5,-0.5C 639.5,159.5 639.5,319.5 639.5,479.5C 426.167,479.5 212.833,479.5 -0.5,479.5C -0.5,319.5 -0.5,159.5 -0.5,-0.5 Z"/></g>
<g><path style="opacity:1" fill="#030303" d="M 283.5,35.5 C 285.857,35.3367 288.19,35.5034 290.5,36C 288.527,36.4955 286.527,36.6621 284.5,36.5C 284.666,40.5138 284.499,44.5138 284,48.5C 283.501,44.1794 283.334,39.8461 283.5,35.5 Z"/></g>
<g><path style="opacity:1" fill="#2c2c2c" d="M 293.5,38.5 C 301.175,37.7094 303.175,40.876 299.5,48C 297.888,48.7203 296.388,48.5536 295,47.5C 294.667,49.1667 294.333,50.8333 294,52.5C 293.501,47.8452 293.334,43.1785 293.5,38.5 Z"/></g>
<g><path style="opacity:1" fill="#e6e6e6" d="M 294.5,40.5 C 296.167,40.5 297.833,40.5 299.5,40.5C 299.5,42.5 299.5,44.5 299.5,46.5C 295.092,46.938 293.425,44.938 294.5,40.5 Z"/></g>
<g><path style="opacity:1" fill="#3c3c3c" d="M 348.5,38.5 C 350.164,39.9488 350.998,41.9488 351,44.5C 351.782,41.9242 353.282,39.9242 355.5,38.5C 356.833,41.8333 356.833,45.1667 355.5,48.5C 354.692,46.5767 354.192,44.5767 354,42.5C 352.732,44.7173 351.232,46.7173 349.5,48.5C 348.513,45.2317 348.18,41.8984 348.5,38.5 Z"/></g>
<g><path style="opacity:1" fill="#373737" d="M 338.5,38.5 C 339.859,39.0065 340.859,40.0065 341.5,41.5C 345.368,37.4314 346.035,37.7647 343.5,42.5C 344.26,44.4366 345.26,46.2699 346.5,48C 345.833,48.6667 345.167,48.6667 344.5,48C 342.343,43.255 340.676,43.4217 339.5,48.5C 338.513,45.2317 338.18,41.8984 338.5,38.5 Z"/></g>
<g><path style="opacity:1" fill="#393939" d="M 364.5,35.5 C 366.792,35.2436 368.959,35.5769 371,36.5C 371.392,39.1879 371.892,41.8546 372.5,44.5C 371.086,48.4208 368.42,49.4208 364.5,47.5C 366.396,46.5344 368.396,46.2011 370.5,46.5C 370.5,45.1667 370.5,43.8333 370.5,42.5C 369.022,42.762 367.689,42.4287 366.5,41.5C 368.149,40.8524 369.482,39.8524 370.5,38.5C 368.025,38.0358 366.025,37.0358 364.5,35.5 Z"/></g>
<g><path style="opacity:1" fill="#202020" d="M 307.5,47.5 C 305.316,48.9829 303.983,48.3163 303.5,45.5C 303.608,44.5581 303.941,43.7247 304.5,43C 305.938,42.7811 307.271,42.2811 308.5,41.5C 306.833,40.8333 305.167,40.1667 303.5,39.5C 308.117,37.4744 310.451,38.9744 310.5,44C 310.333,45.5 310.167,47 310,48.5C 309.329,47.7476 308.496,47.4142 307.5,47.5 Z"/></g>
<g><path style="opacity:1" fill="#c3c3c3" d="M 307.5,47.5 C 304.827,47.3155 304.16,46.1489 305.5,44C 306.793,43.51 308.127,43.3433 309.5,43.5C 309.473,45.1993 308.806,46.5326 307.5,47.5 Z"/></g>
<g><path style="opacity:1" fill="#2c2c2c" d="M 318.5,35.5 C 320.048,35.8212 320.715,36.8212 320.5,38.5C 325.151,39.1742 326.651,41.8408 325,46.5C 323.89,48.0368 322.39,48.7035 320.5,48.5C 320.762,49.9778 320.429,51.3112 319.5,52.5C 318.702,50.9223 318.202,49.2556 318,47.5C 316.667,48.8333 315.333,48.8333 314,47.5C 313.333,44.8333 313.333,42.1667 314,39.5C 315.333,38.1667 316.667,38.1667 318,39.5C 318.49,38.2068 318.657,36.8734 318.5,35.5 Z"/></g>
<g><path style="opacity:1" fill="#f5f5f5" d="M 320.5,40.5 C 321.5,40.5 322.5,40.5 323.5,40.5C 323.5,42.5 323.5,44.5 323.5,46.5C 322.5,46.5 321.5,46.5 320.5,46.5C 320.5,44.5 320.5,42.5 320.5,40.5 Z"/></g>
<g><path style="opacity:1" fill="#eaeaea" d="M 315.5,40.5 C 316.5,40.5 317.5,40.5 318.5,40.5C 318.5,42.5 318.5,44.5 318.5,46.5C 314.556,46.1156 313.556,44.1156 315.5,40.5 Z"/></g>
<g><path style="opacity:1" fill="#2c2c2c" d="M 327.5,38.5 C 329.197,40.3052 330.03,42.6385 330,45.5C 331.015,42.7899 332.515,40.4566 334.5,38.5C 335.657,41.7844 335.824,45.1177 335,48.5C 335.186,39.5467 333.686,39.2133 330.5,47.5C 329.675,48.3857 328.675,48.719 327.5,48.5C 327.5,45.1667 327.5,41.8333 327.5,38.5 Z"/></g>
<g><path style="opacity:1" fill="#2b2b2b" d="M 62.5,52.5 C 64.1439,52.2865 65.6439,52.6198 67,53.5C 67.7772,56.4294 67.6105,59.2628 66.5,62C 64.8876,62.7203 63.3876,62.5536 62,61.5C 61.2642,58.408 61.4309,55.408 62.5,52.5 Z"/></g>
<g><path style="opacity:1" fill="#eeeeee" d="M 63.5,53.5 C 66.9667,55.8227 67.3001,58.4894 64.5,61.5C 62.2251,59.1682 61.8918,56.5016 63.5,53.5 Z"/></g>
<g><path style="opacity:1" fill="#131313" d="M 45.5,53.5 C 46.209,52.596 47.209,52.2627 48.5,52.5C 48.5,55.5 48.5,58.5 48.5,61.5C 51.2627,62.4551 50.2627,62.6218 45.5,62C 46.6841,60.8197 47.3507,59.3197 47.5,57.5C 47.4146,55.6672 46.7479,54.3339 45.5,53.5 Z"/></g>
<g><path style="opacity:1" fill="#424242" d="M 53.5,52.5 C 59.7863,53.3146 61.1196,56.4812 57.5,62C 55.8876,62.7203 54.3876,62.5536 53,61.5C 52.2642,58.408 52.4309,55.408 53.5,52.5 Z"/></g>
<g><path style="opacity:1" fill="#eaeaea" d="M 54.5,53.5 C 56.8896,53.6848 57.8896,55.0182 57.5,57.5C 56.3126,62.7522 54.9793,62.7522 53.5,57.5C 53.8457,56.1508 54.179,54.8175 54.5,53.5 Z"/></g>
<g><path style="opacity:1" fill="#393939" d="M 63.5,114.5 C 69.7863,115.315 71.1196,118.481 67.5,124C 65.8876,124.72 64.3876,124.554 63,123.5C 62.2642,120.408 62.4309,117.408 63.5,114.5 Z"/></g>
<g><path style="opacity:1" fill="#e5e5e5" d="M 64.5,115.5 C 66.8896,115.685 67.8896,117.018 67.5,119.5C 66.1667,124.833 64.8333,124.833 63.5,119.5C 63.6233,118.075 63.9566,116.742 64.5,115.5 Z"/></g>
<g><path style="opacity:1" fill="#767676" d="M 54.5,114.5 C 56.4672,114.261 58.3005,114.594 60,115.5C 60.2022,118.259 60.0355,121.092 59.5,124C 57.5594,124.743 55.7261,124.576 54,123.5C 54.1387,120.473 54.3053,117.473 54.5,114.5 Z"/></g>
<g><path style="opacity:1" fill="#3e3e3e" d="M 63.5,183.5 C 62.3709,181.372 62.2042,179.039 63,176.5C 68.6889,175.201 70.6889,177.534 69,183.5C 66.9104,186.017 65.0771,186.017 63.5,183.5 Z"/></g>
<g><path style="opacity:1" fill="#eaeaea" d="M 63.5,183.5 C 63.162,180.843 63.8287,178.51 65.5,176.5C 66.086,176.709 66.586,177.043 67,177.5C 67.6667,179.5 67.6667,181.5 67,183.5C 65.8545,184.684 64.6879,184.684 63.5,183.5 Z"/></g>
<g><path style="opacity:1" fill="#6f6f6f" d="M 55.5,175.5 C 56.8734,175.343 58.2068,175.51 59.5,176C 54.1676,177.572 54.3342,178.739 60,179.5C 61.0657,185.56 59.0657,186.894 54,183.5C 53.1093,180.502 53.6093,177.836 55.5,175.5 Z"/></g>
<g><path style="opacity:1" fill="#373737" d="M 23.5,223.5 C 27.0205,225.229 30.6872,226.562 34.5,227.5C 34.6495,228.552 34.4828,229.552 34,230.5C 33.3261,229.422 32.3261,228.755 31,228.5C 28.5324,229.503 26.0324,230.003 23.5,230C 29.0551,228.431 29.3885,226.931 24.5,225.5C 23.7025,225.043 23.3691,224.376 23.5,223.5 Z"/></g>
<g><path style="opacity:1" fill="#4d4d4d" d="M 56.5,237.5 C 57.5,237.5 58.5,237.5 59.5,237.5C 59.2436,239.792 59.5769,241.959 60.5,244C 59.9288,245.205 59.2621,246.372 58.5,247.5C 57.6143,246.675 57.281,245.675 57.5,244.5C 56.1667,244.5 54.8333,244.5 53.5,244.5C 54.0427,241.962 55.0427,239.628 56.5,237.5 Z"/></g>
<g><path style="opacity:1" fill="#242424" d="M 27.5,236.5 C 31.0681,236.759 32.4015,238.759 31.5,242.5C 28.8127,242.664 26.146,242.497 23.5,242C 24.448,241.517 25.448,241.351 26.5,241.5C 26.366,239.708 26.6993,238.042 27.5,236.5 Z"/></g>
<g><path style="opacity:1" fill="#d6d6d6" d="M 27.5,238.5 C 28.5,238.5 29.5,238.5 30.5,238.5C 30.5,239.5 30.5,240.5 30.5,241.5C 29.5,241.5 28.5,241.5 27.5,241.5C 27.5,240.5 27.5,239.5 27.5,238.5 Z"/></g>
<g><path style="opacity:1" fill="#333333" d="M 62.5,237.5 C 68.7863,238.315 70.1196,241.481 66.5,247C 64.8876,247.72 63.3876,247.554 62,246.5C 61.2642,243.408 61.4309,240.408 62.5,237.5 Z"/></g>
<g><path style="opacity:1" fill="#ececec" d="M 63.5,238.5 C 65.8896,238.685 66.8896,240.018 66.5,242.5C 65.1667,247.833 63.8333,247.833 62.5,242.5C 62.6233,241.075 62.9566,239.742 63.5,238.5 Z"/></g>
<g><path style="opacity:1" fill="#2a2a2a" d="M 23.5,245.5 C 25.8091,250.806 28.3091,250.806 31,245.5C 31.6667,246.833 31.6667,248.167 31,249.5C 28.9361,250.591 26.7695,250.758 24.5,250C 23.6198,248.644 23.2865,247.144 23.5,245.5 Z"/></g>
<g><path style="opacity:1" fill="#353535" d="M 22.5,255.5 C 22.4142,254.504 22.7476,253.671 23.5,253C 30.9945,251.813 32.9945,254.479 29.5,261C 23.7013,262.673 21.368,260.839 22.5,255.5 Z"/></g>
<g><path style="opacity:1" fill="#e9e9e9" d="M 22.5,255.5 C 24.7375,254.463 27.0709,254.297 29.5,255C 30.9865,258.042 29.9865,259.875 26.5,260.5C 23.6857,260.019 22.3524,258.352 22.5,255.5 Z"/></g>
<g><path style="opacity:1" fill="#444444" d="M 55.5,307.5 C 56.0476,305.606 57.0476,303.94 58.5,302.5C 58.1667,301.5 57.5,300.833 56.5,300.5C 55.3914,301.59 54.3914,301.59 53.5,300.5C 58.0189,298.412 59.8523,299.746 59,304.5C 57.9609,305.71 56.7942,306.71 55.5,307.5 Z"/></g>
<g><path style="opacity:1" fill="#141414" d="M 55.5,307.5 C 56.6085,308.29 57.9419,308.79 59.5,309C 57.4213,309.808 55.4213,309.641 53.5,308.5C 53.9569,307.702 54.6236,307.369 55.5,307.5 Z"/></g>
<g><path style="opacity:1" fill="#383838" d="M 63.5,299.5 C 69.7863,300.315 71.1196,303.481 67.5,309C 65.8876,309.72 64.3876,309.554 63,308.5C 62.2642,305.408 62.4309,302.408 63.5,299.5 Z"/></g>
<g><path style="opacity:1" fill="#e9e9e9" d="M 64.5,300.5 C 66.8896,300.685 67.8896,302.018 67.5,304.5C 67.6578,306.319 66.9911,307.652 65.5,308.5C 64.0542,307.829 63.3875,306.662 63.5,305C 63.7728,303.467 64.1062,301.967 64.5,300.5 Z"/></g>
<g><path style="opacity:1" fill="#414141" d="M 63.5,360.5 C 69.7863,361.315 71.1196,364.481 67.5,370C 65.8876,370.72 64.3876,370.554 63,369.5C 62.3658,366.445 62.5325,363.445 63.5,360.5 Z"/></g>
<g><path style="opacity:1" fill="#e7e7e7" d="M 64.5,361.5 C 66.8896,361.685 67.8896,363.018 67.5,365.5C 66.3126,370.752 64.9793,370.752 63.5,365.5C 63.8457,364.151 64.179,362.817 64.5,361.5 Z"/></g>
<g><path style="opacity:1" fill="#010101" d="M 74.5,58.5 C 241.666,57.5003 408.999,57.167 576.5,57.5C 576.833,183.522 576.5,306.855 575.5,427.5C 555.167,427.5 534.833,427.5 514.5,427.5C 514.167,432.833 513.833,432.833 513.5,427.5C 493.167,427.5 472.833,427.5 452.5,427.5C 452.167,432.833 451.833,432.833 451.5,427.5C 431.167,427.5 410.833,427.5 390.5,427.5C 390.167,432.833 389.833,432.833 389.5,427.5C 369.167,427.5 348.833,427.5 328.5,427.5C 328.167,432.833 327.833,432.833 327.5,427.5C 307.167,427.5 286.833,427.5 266.5,427.5C 266.167,432.833 265.833,432.833 265.5,427.5C 245.167,427.5 224.833,427.5 204.5,427.5C 204.167,432.833 203.833,432.833 203.5,427.5C 183.167,427.5 162.833,427.5 142.5,427.5C 142.167,432.833 141.833,432.833 141.5,427.5C 121.167,427.5 100.833,427.5 80.5,427.5C 80.1667,432.833 79.8333,432.833 79.5,427.5C 74.1667,427.167 74.1667,426.833 79.5,426.5C 79.5,406.5 79.5,386.5 79.5,366.5C 74.1667,366.167 74.1667,365.833 79.5,365.5C 79.5,345.167 79.5,324.833 79.5,304.5C 74.1667,304.167 74.1667,303.833 79.5,303.5C 79.5,283.167 79.5,262.833 79.5,242.5C 72.8333,242.167 72.8333,241.833 79.5,241.5C 79.5,221.5 79.5,201.5 79.5,181.5C 72.8333,181.167 72.8333,180.833 79.5,180.5C 79.5,160.167 79.5,139.833 79.5,119.5C 74.1667,119.167 74.1667,118.833 79.5,118.5C 79.5,98.5 79.5,78.5 79.5,58.5C 77.8333,58.5 76.1667,58.5 74.5,58.5 Z"/></g>
<g><path style="opacity:1" fill="#fa322a" d="M 383.5,363.5 C 383.5,363.167 383.5,362.833 383.5,362.5C 392.167,362.5 400.833,362.5 409.5,362.5C 418.893,363.06 428.227,364.06 437.5,365.5C 437.842,366.338 438.508,366.672 439.5,366.5C 444.02,369.204 446.853,373.204 448,378.5C 448.345,383.267 449.179,387.934 450.5,392.5C 449.675,393.386 448.675,393.719 447.5,393.5C 447.599,390.763 447.265,388.096 446.5,385.5C 446.099,372.102 439.099,365.769 425.5,366.5C 411.604,364.38 397.604,363.38 383.5,363.5 Z"/></g>
<g><path style="opacity:1" fill="#fefefe" d="M 575.5,366.5 C 575.5,386.5 575.5,406.5 575.5,426.5C 555.167,426.5 534.833,426.5 514.5,426.5C 514.5,406.5 514.5,386.5 514.5,366.5C 534.833,366.5 555.167,366.5 575.5,366.5 Z"/></g>
<g><path style="opacity:1" fill="#3b28f7" d="M 311.5,364.5 C 335.328,363.502 359.328,363.169 383.5,363.5C 397.604,363.38 411.604,364.38 425.5,366.5C 436.322,368.657 443.322,374.991 446.5,385.5C 447.265,388.096 447.599,390.763 447.5,393.5C 448.33,400.812 448.997,408.146 449.5,415.5C 449.167,418.167 448.833,420.833 448.5,423.5C 447.415,409.726 445.581,396.059 443,382.5C 439.433,374.619 433.266,370.119 424.5,369C 414.25,367.13 403.917,366.297 393.5,366.5C 382.354,365.251 371.02,364.584 359.5,364.5C 343.5,364.5 327.5,364.5 311.5,364.5 Z"/></g>
<g><path style="opacity:1" fill="#fdfdfd" d="M 393.5,366.5 C 403.917,366.297 414.25,367.13 424.5,369C 433.266,370.119 439.433,374.619 443,382.5C 445.581,396.059 447.415,409.726 448.5,423.5C 448.833,420.833 449.167,418.167 449.5,415.5C 448.997,408.146 448.33,400.812 447.5,393.5C 448.675,393.719 449.675,393.386 450.5,392.5C 449.179,387.934 448.345,383.267 448,378.5C 446.853,373.204 444.02,369.204 439.5,366.5C 443.5,366.5 447.5,366.5 451.5,366.5C 451.5,386.5 451.5,406.5 451.5,426.5C 431.167,426.5 410.833,426.5 390.5,426.5C 390.5,406.5 390.5,386.5 390.5,366.5C 391.5,366.5 392.5,366.5 393.5,366.5 Z"/></g>
<g><path style="opacity:1" fill="#eedeec" d="M 425.5,366.5 C 439.099,365.769 446.099,372.102 446.5,385.5C 443.322,374.991 436.322,368.657 425.5,366.5 Z"/></g>
<g><path style="opacity:1" fill="#fefefe" d="M 80.5,366.5 C 100.833,366.5 121.167,366.5 141.5,366.5C 141.5,386.5 141.5,406.5 141.5,426.5C 121.167,426.5 100.833,426.5 80.5,426.5C 80.5,406.5 80.5,386.5 80.5,366.5 Z"/></g>
<g><path style="opacity:1" fill="#6362cc" d="M 202.5,362.5 C 262.833,362.5 323.167,362.5 383.5,362.5C 383.5,362.833 383.5,363.167 383.5,363.5C 359.328,363.169 335.328,363.502 311.5,364.5C 274.818,365.16 238.485,364.494 202.5,362.5 Z"/></g>
<g><path style="opacity:1" fill="#fafbf9" d="M 446.5,304.5 C 448.167,304.5 449.833,304.5 451.5,304.5C 451.5,324.833 451.5,345.167 451.5,365.5C 446.833,365.5 442.167,365.5 437.5,365.5C 428.227,364.06 418.893,363.06 409.5,362.5C 417.991,361.967 426.325,360.134 434.5,357C 440.435,351.143 443.602,343.977 444,335.5C 445.202,325.198 446.035,314.864 446.5,304.5 Z"/></g>
<g><path style="opacity:1" fill="#fdfefd" d="M 443.5,311.5 C 443.451,324.443 441.618,337.11 438,349.5C 435.545,354.149 431.712,356.983 426.5,358C 414.558,359.707 402.558,360.54 390.5,360.5C 390.5,341.833 390.5,323.167 390.5,304.5C 408.167,304.5 425.833,304.5 443.5,304.5C 443.5,306.833 443.5,309.167 443.5,311.5 Z"/></g>
<g><path style="opacity:1" fill="#fefefe" d="M 203.5,360.5 C 202.662,360.842 202.328,361.508 202.5,362.5C 238.485,364.494 274.818,365.16 311.5,364.5C 327.5,364.5 343.5,364.5 359.5,364.5C 287.335,365.499 215.002,365.833 142.5,365.5C 142.5,345.167 142.5,324.833 142.5,304.5C 162.833,304.5 183.167,304.5 203.5,304.5C 203.5,323.167 203.5,341.833 203.5,360.5 Z"/></g>
<g><path style="opacity:1" fill="#fefefe" d="M 575.5,304.5 C 575.5,324.833 575.5,345.167 575.5,365.5C 555.167,365.5 534.833,365.5 514.5,365.5C 514.5,345.167 514.5,324.833 514.5,304.5C 534.833,304.5 555.167,304.5 575.5,304.5 Z"/></g>
<g><path style="opacity:1" fill="#fefefe" d="M 80.5,304.5 C 100.833,304.5 121.167,304.5 141.5,304.5C 141.5,324.833 141.5,345.167 141.5,365.5C 121.167,365.5 100.833,365.5 80.5,365.5C 80.5,345.167 80.5,324.833 80.5,304.5 Z"/></g>
<g><path style="opacity:1" fill="#b1b1b1" d="M 451.5,58.5 C 451.833,58.5 452.167,58.5 452.5,58.5C 452.5,78.5 452.5,98.5 452.5,118.5C 529.833,118.833 529.833,119.167 452.5,119.5C 452.5,139.833 452.5,160.167 452.5,180.5C 472.833,180.5 493.167,180.5 513.5,180.5C 513.833,115.167 514.167,115.167 514.5,180.5C 534.833,180.5 555.167,180.5 575.5,180.5C 575.5,180.833 575.5,181.167 575.5,181.5C 555.167,181.5 534.833,181.5 514.5,181.5C 514.5,201.5 514.5,221.5 514.5,241.5C 534.833,241.5 555.167,241.5 575.5,241.5C 575.5,241.833 575.5,242.167 575.5,242.5C 555.167,242.5 534.833,242.5 514.5,242.5C 514.5,262.833 514.5,283.167 514.5,303.5C 534.833,303.5 555.167,303.5 575.5,303.5C 575.5,303.833 575.5,304.167 575.5,304.5C 555.167,304.5 534.833,304.5 514.5,304.5C 514.5,324.833 514.5,345.167 514.5,365.5C 534.833,365.5 555.167,365.5 575.5,365.5C 575.5,365.833 575.5,366.167 575.5,366.5C 555.167,366.5 534.833,366.5 514.5,366.5C 514.5,386.5 514.5,406.5 514.5,426.5C 514.167,426.5 513.833,426.5 513.5,426.5C 513.5,406.5 513.5,386.5 513.5,366.5C 493.167,366.5 472.833,366.5 452.5,366.5C 452.5,386.5 452.5,406.5 452.5,426.5C 452.167,426.5 451.833,426.5 451.5,426.5C 451.5,406.5 451.5,386.5 451.5,366.5C 447.5,366.5 443.5,366.5 439.5,366.5C 438.508,366.672 437.842,366.338 437.5,365.5C 442.167,365.5 446.833,365.5 451.5,365.5C 451.5,345.167 451.5,324.833 451.5,304.5C 449.833,304.5 448.167,304.5 446.5,304.5C 446.5,304.167 446.5,303.833 446.5,303.5C 448.167,303.5 449.833,303.5 451.5,303.5C 451.5,283.167 451.5,262.833 451.5,242.5C 450.5,242.5 449.5,242.5 448.5,242.5C 448.5,242.167 448.5,241.833 448.5,241.5C 449.5,241.5 450.5,241.5 451.5,241.5C 452.148,221.1 451.481,200.933 449.5,181C 450.821,170.894 451.488,160.561 451.5,150C 451.499,139.477 450.832,129.311 449.5,119.5C 449.5,119.167 449.5,118.833 449.5,118.5C 451.488,98.8613 452.155,78.8613 451.5,58.5 Z"/></g>
<g><path style="opacity:1" fill="#fefefe" d="M 513.5,426.5 C 493.167,426.5 472.833,426.5 452.5,426.5C 452.5,406.5 452.5,386.5 452.5,366.5C 472.833,366.5 493.167,366.5 513.5,366.5C 513.5,386.5 513.5,406.5 513.5,426.5 Z"/></g>
<g><path style="opacity:1" fill="#fefefe" d="M 452.5,304.5 C 472.833,304.5 493.167,304.5 513.5,304.5C 513.5,324.833 513.5,345.167 513.5,365.5C 493.167,365.5 472.833,365.5 452.5,365.5C 452.5,345.167 452.5,324.833 452.5,304.5 Z"/></g>
<g><path style="opacity:1" fill="#308f29" d="M 447.5,59.5 C 449.479,71.1201 450.146,83.1201 449.5,95.5C 449.5,103.167 449.5,110.833 449.5,118.5C 449.5,118.833 449.5,119.167 449.5,119.5C 448.825,160.163 448.492,200.83 448.5,241.5C 448.5,241.833 448.5,242.167 448.5,242.5C 447.846,262.838 447.179,283.171 446.5,303.5C 446.5,303.833 446.5,304.167 446.5,304.5C 446.035,314.864 445.202,325.198 444,335.5C 443.602,343.977 440.435,351.143 434.5,357C 426.325,360.134 417.991,361.967 409.5,362.5C 400.833,362.5 392.167,362.5 383.5,362.5C 323.167,362.5 262.833,362.5 202.5,362.5C 202.328,361.508 202.662,360.842 203.5,360.5C 203.833,360.5 204.167,360.5 204.5,360.5C 224.833,360.5 245.167,360.5 265.5,360.5C 265.833,360.5 266.167,360.5 266.5,360.5C 286.833,360.5 307.167,360.5 327.5,360.5C 327.833,360.5 328.167,360.5 328.5,360.5C 348.833,360.5 369.167,360.5 389.5,360.5C 389.833,360.5 390.167,360.5 390.5,360.5C 402.558,360.54 414.558,359.707 426.5,358C 431.712,356.983 435.545,354.149 438,349.5C 441.618,337.11 443.451,324.443 443.5,311.5C 444.473,309.052 444.806,306.385 444.5,303.5C 445.389,284.85 445.722,266.183 445.5,247.5C 446.496,231.675 446.83,215.675 446.5,199.5C 446.5,193.5 446.5,187.5 446.5,181.5C 446.5,181.167 446.5,180.833 446.5,180.5C 446.5,170.833 446.5,161.167 446.5,151.5C 447.495,140.679 447.828,129.679 447.5,118.5C 447.5,98.8333 447.5,79.1667 447.5,59.5 Z"/></g>
<g><path style="opacity:1" fill="#fefefe" d="M 452.5,242.5 C 472.833,242.5 493.167,242.5 513.5,242.5C 513.5,262.833 513.5,283.167 513.5,303.5C 493.167,303.5 472.833,303.5 452.5,303.5C 452.5,283.167 452.5,262.833 452.5,242.5 Z"/></g>
<g><path style="opacity:1" fill="#f5f9f4" d="M 448.5,242.5 C 449.5,242.5 450.5,242.5 451.5,242.5C 451.5,262.833 451.5,283.167 451.5,303.5C 449.833,303.5 448.167,303.5 446.5,303.5C 447.179,283.171 447.846,262.838 448.5,242.5 Z"/></g>
<g><path style="opacity:1" fill="#fefefe" d="M 575.5,242.5 C 575.5,262.833 575.5,283.167 575.5,303.5C 555.167,303.5 534.833,303.5 514.5,303.5C 514.5,283.167 514.5,262.833 514.5,242.5C 534.833,242.5 555.167,242.5 575.5,242.5 Z"/></g>
<g><path style="opacity:1" fill="#fefefe" d="M 445.5,247.5 C 445.722,266.183 445.389,284.85 444.5,303.5C 426.5,303.5 408.5,303.5 390.5,303.5C 390.5,283.167 390.5,262.833 390.5,242.5C 408.833,242.5 427.167,242.5 445.5,242.5C 445.5,244.167 445.5,245.833 445.5,247.5 Z"/></g>
<g><path style="opacity:1" fill="#fefefe" d="M 80.5,242.5 C 100.833,242.5 121.167,242.5 141.5,242.5C 141.5,262.833 141.5,283.167 141.5,303.5C 121.167,303.5 100.833,303.5 80.5,303.5C 80.5,283.167 80.5,262.833 80.5,242.5 Z"/></g>
<g><path style="opacity:1" fill="#fefefe" d="M 452.5,181.5 C 472.833,181.5 493.167,181.5 513.5,181.5C 513.5,201.5 513.5,221.5 513.5,241.5C 493.167,241.5 472.833,241.5 452.5,241.5C 452.5,221.5 452.5,201.5 452.5,181.5 Z"/></g>
<g><path style="opacity:1" fill="#f5f9f5" d="M 449.5,119.5 C 450.832,129.311 451.499,139.477 451.5,150C 451.488,160.561 450.821,170.894 449.5,181C 451.481,200.933 452.148,221.1 451.5,241.5C 450.5,241.5 449.5,241.5 448.5,241.5C 448.492,200.83 448.825,160.163 449.5,119.5 Z"/></g>
<g><path style="opacity:1" fill="#fefefe" d="M 575.5,181.5 C 575.5,201.5 575.5,221.5 575.5,241.5C 555.167,241.5 534.833,241.5 514.5,241.5C 514.5,221.5 514.5,201.5 514.5,181.5C 534.833,181.5 555.167,181.5 575.5,181.5 Z"/></g>
<g><path style="opacity:1" fill="#fefefe" d="M 446.5,181.5 C 446.5,187.5 446.5,193.5 446.5,199.5C 445.504,213.323 445.171,227.323 445.5,241.5C 427.167,241.5 408.833,241.5 390.5,241.5C 390.5,221.5 390.5,201.5 390.5,181.5C 409.167,181.5 427.833,181.5 446.5,181.5 Z"/></g>
<g><path style="opacity:1" fill="#fefefe" d="M 80.5,181.5 C 100.833,181.5 121.167,181.5 141.5,181.5C 141.5,201.5 141.5,221.5 141.5,241.5C 121.167,241.5 100.833,241.5 80.5,241.5C 80.5,221.5 80.5,201.5 80.5,181.5 Z"/></g>
<g><path style="opacity:1" fill="#b0b1b0" d="M 141.5,58.5 C 141.833,58.5 142.167,58.5 142.5,58.5C 142.5,78.5 142.5,98.5 142.5,118.5C 162.833,118.5 183.167,118.5 203.5,118.5C 203.5,98.5 203.5,78.5 203.5,58.5C 203.833,58.5 204.167,58.5 204.5,58.5C 204.5,78.5 204.5,98.5 204.5,118.5C 224.833,118.5 245.167,118.5 265.5,118.5C 265.5,98.5 265.5,78.5 265.5,58.5C 265.833,58.5 266.167,58.5 266.5,58.5C 266.5,78.5 266.5,98.5 266.5,118.5C 286.833,118.5 307.167,118.5 327.5,118.5C 327.5,98.5 327.5,78.5 327.5,58.5C 327.833,58.5 328.167,58.5 328.5,58.5C 328.5,78.5 328.5,98.5 328.5,118.5C 348.833,118.5 369.167,118.5 389.5,118.5C 389.5,98.5 389.5,78.5 389.5,58.5C 389.833,58.5 390.167,58.5 390.5,58.5C 390.5,78.5 390.5,98.5 390.5,118.5C 409.5,118.5 428.5,118.5 447.5,118.5C 447.828,129.679 447.495,140.679 446.5,151.5C 446.5,140.833 446.5,130.167 446.5,119.5C 427.833,119.5 409.167,119.5 390.5,119.5C 390.5,139.833 390.5,160.167 390.5,180.5C 409.167,180.5 427.833,180.5 446.5,180.5C 446.5,180.833 446.5,181.167 446.5,181.5C 427.833,181.5 409.167,181.5 390.5,181.5C 390.5,201.5 390.5,221.5 390.5,241.5C 408.833,241.5 427.167,241.5 445.5,241.5C 445.171,227.323 445.504,213.323 446.5,199.5C 446.83,215.675 446.496,231.675 445.5,247.5C 445.5,245.833 445.5,244.167 445.5,242.5C 427.167,242.5 408.833,242.5 390.5,242.5C 390.5,262.833 390.5,283.167 390.5,303.5C 408.5,303.5 426.5,303.5 444.5,303.5C 444.806,306.385 444.473,309.052 443.5,311.5C 443.5,309.167 443.5,306.833 443.5,304.5C 425.833,304.5 408.167,304.5 390.5,304.5C 390.5,323.167 390.5,341.833 390.5,360.5C 390.167,360.5 389.833,360.5 389.5,360.5C 389.5,341.833 389.5,323.167 389.5,304.5C 369.167,304.5 348.833,304.5 328.5,304.5C 328.5,323.167 328.5,341.833 328.5,360.5C 328.167,360.5 327.833,360.5 327.5,360.5C 327.5,341.833 327.5,323.167 327.5,304.5C 307.167,304.5 286.833,304.5 266.5,304.5C 266.5,323.167 266.5,341.833 266.5,360.5C 266.167,360.5 265.833,360.5 265.5,360.5C 265.5,341.833 265.5,323.167 265.5,304.5C 245.167,304.5 224.833,304.5 204.5,304.5C 204.5,323.167 204.5,341.833 204.5,360.5C 204.167,360.5 203.833,360.5 203.5,360.5C 203.5,341.833 203.5,323.167 203.5,304.5C 183.167,304.5 162.833,304.5 142.5,304.5C 142.5,324.833 142.5,345.167 142.5,365.5C 215.002,365.833 287.335,365.499 359.5,364.5C 371.02,364.584 382.354,365.251 393.5,366.5C 392.5,366.5 391.5,366.5 390.5,366.5C 390.5,386.5 390.5,406.5 390.5,426.5C 390.167,426.5 389.833,426.5 389.5,426.5C 389.5,406.5 389.5,386.5 389.5,366.5C 369.167,366.5 348.833,366.5 328.5,366.5C 328.5,386.5 328.5,406.5 328.5,426.5C 328.167,426.5 327.833,426.5 327.5,426.5C 327.5,406.5 327.5,386.5 327.5,366.5C 307.167,366.5 286.833,366.5 266.5,366.5C 266.5,386.5 266.5,406.5 266.5,426.5C 266.167,426.5 265.833,426.5 265.5,426.5C 265.5,406.5 265.5,386.5 265.5,366.5C 245.167,366.5 224.833,366.5 204.5,366.5C 204.5,386.5 204.5,406.5 204.5,426.5C 204.167,426.5 203.833,426.5 203.5,426.5C 203.5,406.5 203.5,386.5 203.5,366.5C 183.167,366.5 162.833,366.5 142.5,366.5C 142.5,386.5 142.5,406.5 142.5,426.5C 142.167,426.5 141.833,426.5 141.5,426.5C 141.5,406.5 141.5,386.5 141.5,366.5C 121.167,366.5 100.833,366.5 80.5,366.5C 80.5,366.167 80.5,365.833 80.5,365.5C 100.833,365.5 121.167,365.5 141.5,365.5C 141.5,345.167 141.5,324.833 141.5,304.5C 121.167,304.5 100.833,304.5 80.5,304.5C 80.5,304.167 80.5,303.833 80.5,303.5C 100.833,303.5 121.167,303.5 141.5,303.5C 141.5,283.167 141.5,262.833 141.5,242.5C 121.167,242.5 100.833,242.5 80.5,242.5C 80.5,242.167 80.5,241.833 80.5,241.5C 100.833,241.5 121.167,241.5 141.5,241.5C 141.5,221.5 141.5,201.5 141.5,181.5C 121.167,181.5 100.833,181.5 80.5,181.5C 80.5,181.167 80.5,180.833 80.5,180.5C 100.833,180.5 121.167,180.5 141.5,180.5C 141.5,160.167 141.5,139.833 141.5,119.5C 121.167,119.5 100.833,119.5 80.5,119.5C 80.5,119.167 80.5,118.833 80.5,118.5C 100.833,118.5 121.167,118.5 141.5,118.5C 141.5,98.5 141.5,78.5 141.5,58.5 Z"/></g>
<g><path style="opacity:1" fill="#fefefe" d="M 389.5,426.5 C 369.167,426.5 348.833,426.5 328.5,426.5C 328.5,406.5 328.5,386.5 328.5,366.5C 348.833,366.5 369.167,366.5 389.5,366.5C 389.5,386.5 389.5,406.5 389.5,426.5 Z"/></g>
<g><path style="opacity:1" fill="#fefefe" d="M 327.5,426.5 C 307.167,426.5 286.833,426.5 266.5,426.5C 266.5,406.5 266.5,386.5 266.5,366.5C 286.833,366.5 307.167,366.5 327.5,366.5C 327.5,386.5 327.5,406.5 327.5,426.5 Z"/></g>
<g><path style="opacity:1" fill="#fefefe" d="M 265.5,426.5 C 245.167,426.5 224.833,426.5 204.5,426.5C 204.5,406.5 204.5,386.5 204.5,366.5C 224.833,366.5 245.167,366.5 265.5,366.5C 265.5,386.5 265.5,406.5 265.5,426.5 Z"/></g>
<g><path style="opacity:1" fill="#fefefe" d="M 203.5,426.5 C 183.167,426.5 162.833,426.5 142.5,426.5C 142.5,406.5 142.5,386.5 142.5,366.5C 162.833,366.5 183.167,366.5 203.5,366.5C 203.5,386.5 203.5,406.5 203.5,426.5 Z"/></g>
<g><path style="opacity:1" fill="#fefefe" d="M 265.5,360.5 C 245.167,360.5 224.833,360.5 204.5,360.5C 204.5,341.833 204.5,323.167 204.5,304.5C 224.833,304.5 245.167,304.5 265.5,304.5C 265.5,323.167 265.5,341.833 265.5,360.5 Z"/></g>
<g><path style="opacity:1" fill="#fefefe" d="M 389.5,360.5 C 369.167,360.5 348.833,360.5 328.5,360.5C 328.5,341.833 328.5,323.167 328.5,304.5C 348.833,304.5 369.167,304.5 389.5,304.5C 389.5,323.167 389.5,341.833 389.5,360.5 Z"/></g>
<g><path style="opacity:1" fill="#fefefe" d="M 327.5,360.5 C 307.167,360.5 286.833,360.5 266.5,360.5C 266.5,341.833 266.5,323.167 266.5,304.5C 286.833,304.5 307.167,304.5 327.5,304.5C 327.5,323.167 327.5,341.833 327.5,360.5 Z"/></g>
<g><path style="opacity:1" fill="#fefefe" d="M 328.5,242.5 C 348.833,242.5 369.167,242.5 389.5,242.5C 389.5,262.833 389.5,283.167 389.5,303.5C 369.167,303.5 348.833,303.5 328.5,303.5C 328.5,283.167 328.5,262.833 328.5,242.5 Z"/></g>
<g><path style="opacity:1" fill="#fefefe" d="M 266.5,242.5 C 286.833,242.5 307.167,242.5 327.5,242.5C 327.5,262.833 327.5,283.167 327.5,303.5C 307.167,303.5 286.833,303.5 266.5,303.5C 266.5,283.167 266.5,262.833 266.5,242.5 Z"/></g>
<g><path style="opacity:1" fill="#fefefe" d="M 204.5,242.5 C 224.833,242.5 245.167,242.5 265.5,242.5C 265.5,262.833 265.5,283.167 265.5,303.5C 245.167,303.5 224.833,303.5 204.5,303.5C 204.5,283.167 204.5,262.833 204.5,242.5 Z"/></g>
<g><path style="opacity:1" fill="#fefefe" d="M 142.5,242.5 C 162.833,242.5 183.167,242.5 203.5,242.5C 203.5,262.833 203.5,283.167 203.5,303.5C 183.167,303.5 162.833,303.5 142.5,303.5C 142.5,283.167 142.5,262.833 142.5,242.5 Z"/></g>
<g><path style="opacity:1" fill="#fefefe" d="M 204.5,181.5 C 224.833,181.5 245.167,181.5 265.5,181.5C 265.5,201.5 265.5,221.5 265.5,241.5C 245.167,241.5 224.833,241.5 204.5,241.5C 204.5,221.5 204.5,201.5 204.5,181.5 Z"/></g>
<g><path style="opacity:1" fill="#fefefe" d="M 328.5,181.5 C 348.833,181.5 369.167,181.5 389.5,181.5C 389.5,201.5 389.5,221.5 389.5,241.5C 369.167,241.5 348.833,241.5 328.5,241.5C 328.5,221.5 328.5,201.5 328.5,181.5 Z"/></g>
<g><path style="opacity:1" fill="#fefefe" d="M 266.5,181.5 C 286.833,181.5 307.167,181.5 327.5,181.5C 327.5,201.5 327.5,221.5 327.5,241.5C 307.167,241.5 286.833,241.5 266.5,241.5C 266.5,221.5 266.5,201.5 266.5,181.5 Z"/></g>
<g><path style="opacity:1" fill="#fefefe" d="M 142.5,181.5 C 162.833,181.5 183.167,181.5 203.5,181.5C 203.5,201.5 203.5,221.5 203.5,241.5C 183.167,241.5 162.833,241.5 142.5,241.5C 142.5,221.5 142.5,201.5 142.5,181.5 Z"/></g>
<g><path style="opacity:1" fill="#fefefe" d="M 446.5,151.5 C 446.5,161.167 446.5,170.833 446.5,180.5C 427.833,180.5 409.167,180.5 390.5,180.5C 390.5,160.167 390.5,139.833 390.5,119.5C 409.167,119.5 427.833,119.5 446.5,119.5C 446.5,130.167 446.5,140.833 446.5,151.5 Z"/></g>
<g><path style="opacity:1" fill="#fefefe" d="M 328.5,119.5 C 348.833,119.5 369.167,119.5 389.5,119.5C 389.5,139.833 389.5,160.167 389.5,180.5C 369.167,180.5 348.833,180.5 328.5,180.5C 328.5,160.167 328.5,139.833 328.5,119.5 Z"/></g>
<g><path style="opacity:1" fill="#fefefe" d="M 266.5,119.5 C 286.833,119.5 307.167,119.5 327.5,119.5C 327.5,139.833 327.5,160.167 327.5,180.5C 307.167,180.5 286.833,180.5 266.5,180.5C 266.5,160.167 266.5,139.833 266.5,119.5 Z"/></g>
<g><path style="opacity:1" fill="#fefefe" d="M 204.5,119.5 C 224.833,119.5 245.167,119.5 265.5,119.5C 265.5,139.833 265.5,160.167 265.5,180.5C 245.167,180.5 224.833,180.5 204.5,180.5C 204.5,160.167 204.5,139.833 204.5,119.5 Z"/></g>
<g><path style="opacity:1" fill="#fefefe" d="M 142.5,119.5 C 162.833,119.5 183.167,119.5 203.5,119.5C 203.5,139.833 203.5,160.167 203.5,180.5C 183.167,180.5 162.833,180.5 142.5,180.5C 142.5,160.167 142.5,139.833 142.5,119.5 Z"/></g>
<g><path style="opacity:1" fill="#fefefe" d="M 80.5,119.5 C 100.833,119.5 121.167,119.5 141.5,119.5C 141.5,139.833 141.5,160.167 141.5,180.5C 121.167,180.5 100.833,180.5 80.5,180.5C 80.5,160.167 80.5,139.833 80.5,119.5 Z"/></g>
<g><path style="opacity:1" fill="#f8f9f8" d="M 450.5,58.5 C 450.833,58.5 451.167,58.5 451.5,58.5C 452.155,78.8613 451.488,98.8613 449.5,118.5C 449.5,110.833 449.5,103.167 449.5,95.5C 450.495,83.3446 450.829,71.0113 450.5,58.5 Z"/></g>
<g><path style="opacity:1" fill="#b4daaf" d="M 447.5,59.5 C 447.5,59.1667 447.5,58.8333 447.5,58.5C 448.5,58.5 449.5,58.5 450.5,58.5C 450.829,71.0113 450.495,83.3446 449.5,95.5C 450.146,83.1201 449.479,71.1201 447.5,59.5 Z"/></g>
<g><path style="opacity:1" fill="#fcfcfc" d="M 452.5,58.5 C 493.5,58.5 534.5,58.5 575.5,58.5C 575.5,99.1667 575.5,139.833 575.5,180.5C 555.167,180.5 534.833,180.5 514.5,180.5C 514.167,115.167 513.833,115.167 513.5,180.5C 493.167,180.5 472.833,180.5 452.5,180.5C 452.5,160.167 452.5,139.833 452.5,119.5C 529.833,119.167 529.833,118.833 452.5,118.5C 452.5,98.5 452.5,78.5 452.5,58.5 Z"/></g>
<g><path style="opacity:1" fill="#454545" d="M 556.5,113.5 C 557.919,112.549 559.585,112.216 561.5,112.5C 561.292,114.92 561.626,117.253 562.5,119.5C 561.278,122.089 559.278,122.923 556.5,122C 561.214,120.944 561.547,119.277 557.5,117C 561.363,115.186 561.03,114.02 556.5,113.5 Z"/></g>
<g><path style="opacity:1" fill="#028003" d="M 514.5,116.5 C 524.522,116.168 534.522,116.501 544.5,117.5C 539.5,117.833 534.5,118.167 529.5,118.5C 524.119,118.494 519.119,117.828 514.5,116.5 Z"/></g>
<g><path style="opacity:1" fill="#363636" d="M 555.5,91.5 C 562.737,92.2724 563.403,95.1057 557.5,100C 558.833,100.333 560.167,100.667 561.5,101C 559.421,101.808 557.421,101.641 555.5,100.5C 557.167,98.5 558.833,96.5 560.5,94.5C 559.597,92.3796 558.263,92.0462 556.5,93.5C 555.702,93.0431 555.369,92.3764 555.5,91.5 Z"/></g>
<g><path style="opacity:1" fill="#0302fd" d="M 514.5,95.5 C 524.522,95.1681 534.522,95.5015 544.5,96.5C 539.5,96.8333 534.5,97.1667 529.5,97.5C 524.119,97.4942 519.119,96.8275 514.5,95.5 Z"/></g>
<g><path style="opacity:1" fill="#fd0102" d="M 514.5,74.5 C 524.522,74.1681 534.522,74.5015 544.5,75.5C 539.5,75.8333 534.5,76.1667 529.5,76.5C 524.119,76.4942 519.119,75.8275 514.5,74.5 Z"/></g>
<g><path style="opacity:1" fill="#050505" d="M 557.5,71.5 C 557.56,70.9569 557.893,70.6236 558.5,70.5C 558.961,73.9551 559.961,77.1218 561.5,80C 559.833,80.6667 558.167,80.6667 556.5,80C 557.684,78.8197 558.351,77.3197 558.5,75.5C 558.489,73.9549 558.156,72.6216 557.5,71.5 Z"/></g>
<g><path style="opacity:1" fill="#fefefe" d="M 390.5,58.5 C 409.5,58.5 428.5,58.5 447.5,58.5C 447.5,58.8333 447.5,59.1667 447.5,59.5C 447.5,79.1667 447.5,98.8333 447.5,118.5C 428.5,118.5 409.5,118.5 390.5,118.5C 390.5,98.5 390.5,78.5 390.5,58.5 Z"/></g>
<g><path style="opacity:1" fill="#fefefe" d="M 328.5,58.5 C 348.833,58.5 369.167,58.5 389.5,58.5C 389.5,78.5 389.5,98.5 389.5,118.5C 369.167,118.5 348.833,118.5 328.5,118.5C 328.5,98.5 328.5,78.5 328.5,58.5 Z"/></g>
<g><path style="opacity:1" fill="#fefefe" d="M 266.5,58.5 C 286.833,58.5 307.167,58.5 327.5,58.5C 327.5,78.5 327.5,98.5 327.5,118.5C 307.167,118.5 286.833,118.5 266.5,118.5C 266.5,98.5 266.5,78.5 266.5,58.5 Z"/></g>
<g><path style="opacity:1" fill="#fefefe" d="M 204.5,58.5 C 224.833,58.5 245.167,58.5 265.5,58.5C 265.5,78.5 265.5,98.5 265.5,118.5C 245.167,118.5 224.833,118.5 204.5,118.5C 204.5,98.5 204.5,78.5 204.5,58.5 Z"/></g>
<g><path style="opacity:1" fill="#fefefe" d="M 142.5,58.5 C 162.833,58.5 183.167,58.5 203.5,58.5C 203.5,78.5 203.5,98.5 203.5,118.5C 183.167,118.5 162.833,118.5 142.5,118.5C 142.5,98.5 142.5,78.5 142.5,58.5 Z"/></g>
<g><path style="opacity:1" fill="#fefefe" d="M 141.5,58.5 C 141.5,78.5 141.5,98.5 141.5,118.5C 121.167,118.5 100.833,118.5 80.5,118.5C 80.5,98.5 80.5,78.5 80.5,58.5C 100.833,58.5 121.167,58.5 141.5,58.5 Z"/></g>
<g><path style="opacity:1" fill="#414141" d="M 57.5,423.5 C 59.3442,424.204 59.8442,425.537 59,427.5C 57.8333,428.667 56.6667,429.833 55.5,431C 56.8333,431.333 58.1667,431.667 59.5,432C 52.8985,433.074 52.0651,431.574 57,427.5C 57.49,426.207 57.6567,424.873 57.5,423.5 Z"/></g>
<g><path style="opacity:1" fill="#3c3c3c" d="M 66.5,423.5 C 67.7479,424.334 68.4146,425.667 68.5,427.5C 68.3451,432.75 66.1785,433.75 62,430.5C 61.0561,427.653 61.5561,425.153 63.5,423C 64.7494,422.26 65.7494,422.427 66.5,423.5 Z"/></g>
<g><path style="opacity:1" fill="#ececec" d="M 66.5,423.5 C 68.1011,426.423 67.7678,429.09 65.5,431.5C 64.0089,430.652 63.3422,429.319 63.5,427.5C 63.1104,425.018 64.1104,423.685 66.5,423.5 Z"/></g>
<g><path style="opacity:1" fill="#2d2d2d" d="M 93.5,437.5 C 95.1439,437.286 96.6439,437.62 98,438.5C 98.7772,441.429 98.6105,444.263 97.5,447C 95.8876,447.72 94.3876,447.554 93,446.5C 92.2642,443.408 92.4309,440.408 93.5,437.5 Z"/></g>
<g><path style="opacity:1" fill="#141414" d="M 195.5,438.5 C 196.209,437.596 197.209,437.263 198.5,437.5C 197.989,441.03 198.656,444.196 200.5,447C 195.737,447.622 194.737,447.455 197.5,446.5C 198.036,443.302 197.369,440.635 195.5,438.5 Z"/></g>
<g><path style="opacity:1" fill="#373737" d="M 398.5,437.5 C 400.199,437.34 401.866,437.506 403.5,438C 399.732,439.177 399.899,440.344 404,441.5C 405.5,446.667 403.667,448.5 398.5,447C 405.056,445.265 405.056,443.431 398.5,441.5C 398.5,440.167 398.5,438.833 398.5,437.5 Z"/></g>
<g><path style="opacity:1" fill="#343434" d="M 503.5,437.5 C 510.236,437.735 511.236,440.401 506.5,445.5C 507.376,446.251 508.376,446.751 509.5,447C 507.421,447.808 505.421,447.641 503.5,446.5C 505.167,444.5 506.833,442.5 508.5,440.5C 507.38,438.404 505.88,438.07 504,439.5C 503.536,438.906 503.369,438.239 503.5,437.5 Z"/></g>
<g><path style="opacity:1" fill="#161616" d="M 71.5,438.5 C 72.209,437.596 73.209,437.263 74.5,437.5C 73.9889,441.03 74.6556,444.196 76.5,447C 74.8333,447.667 73.1667,447.667 71.5,447C 72.6841,445.82 73.3507,444.32 73.5,442.5C 73.4146,440.667 72.7479,439.334 71.5,438.5 Z"/></g>
<g><path style="opacity:1" fill="#eeeeee" d="M 94.5,438.5 C 96.7224,438.559 97.7224,439.725 97.5,442C 96.3236,447.727 94.9903,447.894 93.5,442.5C 93.6233,441.075 93.9566,439.742 94.5,438.5 Z"/></g>
<g><path style="opacity:1" fill="#131313" d="M 133.5,438.5 C 134.209,437.596 135.209,437.263 136.5,437.5C 135.989,441.03 136.656,444.196 138.5,447C 133.737,447.622 132.737,447.455 135.5,446.5C 136.036,443.302 135.369,440.635 133.5,438.5 Z"/></g>
<g><path style="opacity:1" fill="#1a1a1a" d="M 323.5,437.5 C 329.324,437.347 329.657,438.013 324.5,439.5C 328.374,441.002 328.041,441.669 323.5,441.5C 323.5,440.167 323.5,438.833 323.5,437.5 Z"/></g>
<g><path style="opacity:1" fill="#434343" d="M 140.5,437.5 C 148.654,437.455 149.654,440.288 143.5,446C 144.833,446.333 146.167,446.667 147.5,447C 140.898,448.074 140.065,446.574 145,442.5C 145.49,441.207 145.657,439.873 145.5,438.5C 144.07,438.421 142.736,438.754 141.5,439.5C 140.702,439.043 140.369,438.376 140.5,437.5 Z"/></g>
<g><path style="opacity:1" fill="#262626" d="M 217.5,437.5 C 219.144,437.286 220.644,437.62 222,438.5C 222.777,441.429 222.61,444.263 221.5,447C 219.888,447.72 218.388,447.554 217,446.5C 216.264,443.408 216.431,440.408 217.5,437.5 Z"/></g>
<g><path style="opacity:1" fill="#ebebeb" d="M 218.5,438.5 C 220.89,438.685 221.89,440.018 221.5,442.5C 220.167,447.833 218.833,447.833 217.5,442.5C 217.623,441.075 217.957,439.742 218.5,438.5 Z"/></g>
<g><path style="opacity:1" fill="#383838" d="M 79.5,437.5 C 85.3239,437.347 85.6572,438.013 80.5,439.5C 85.0126,439.895 86.5126,442.229 85,446.5C 83.2739,447.576 81.4406,447.743 79.5,447C 80.7932,446.51 82.1266,446.343 83.5,446.5C 84.2436,443.05 82.9103,441.384 79.5,441.5C 79.5,440.167 79.5,438.833 79.5,437.5 Z"/></g>
<g><path style="opacity:1" fill="#5b5b5b" d="M 154.5,437.5 C 160.324,437.347 160.657,438.013 155.5,439.5C 159.503,440.27 161.003,442.604 160,446.5C 158.274,447.576 156.441,447.743 154.5,447C 155.793,446.51 157.127,446.343 158.5,446.5C 158.5,445.167 158.5,443.833 158.5,442.5C 157.167,442.5 155.833,442.5 154.5,442.5C 154.5,440.833 154.5,439.167 154.5,437.5 Z"/></g>
<g><path style="opacity:1" fill="#393939" d="M 207.5,438.5 C 208.748,439.334 209.415,440.667 209.5,442.5C 209.97,447.16 208.137,448.494 204,446.5C 201.845,443.46 202.012,440.627 204.5,438C 205.749,437.26 206.749,437.427 207.5,438.5 Z"/></g>
<g><path style="opacity:1" fill="#ececec" d="M 207.5,438.5 C 208.992,441.379 208.659,444.046 206.5,446.5C 205.009,445.652 204.342,444.319 204.5,442.5C 204.11,440.018 205.11,438.685 207.5,438.5 Z"/></g>
<g><path style="opacity:1" fill="#2f2f2f" d="M 274.5,437.5 C 276.199,437.34 277.866,437.506 279.5,438C 275.732,439.177 275.899,440.344 280,441.5C 281.5,446.667 279.667,448.5 274.5,447C 278.638,447.218 279.972,445.552 278.5,442C 277.207,441.51 275.873,441.343 274.5,441.5C 274.5,440.167 274.5,438.833 274.5,437.5 Z"/></g>
<g><path style="opacity:1" fill="#353535" d="M 517.5,437.5 C 523.324,437.347 523.657,438.013 518.5,439.5C 523.348,440.769 524.348,443.269 521.5,447C 520.167,447.667 518.833,447.667 517.5,447C 521.13,446.729 522.13,445.062 520.5,442C 519.552,441.517 518.552,441.351 517.5,441.5C 517.5,440.167 517.5,438.833 517.5,437.5 Z"/></g>
<g><path style="opacity:1" fill="#373737" d="M 337.5,437.5 C 343.548,438.46 344.881,441.627 341.5,447C 339.888,447.72 338.388,447.554 337,446.5C 336.264,443.408 336.431,440.408 337.5,437.5 Z"/></g>
<g><path style="opacity:1" fill="#ededed" d="M 338.5,438.5 C 340.89,438.685 341.89,440.018 341.5,442.5C 340.01,447.894 338.676,447.727 337.5,442C 337.648,440.744 337.982,439.577 338.5,438.5 Z"/></g>
<g><path style="opacity:1" fill="#2d2d2d" d="M 261.5,438.5 C 263.364,437.207 265.364,437.207 267.5,438.5C 266.547,441.701 265.214,444.701 263.5,447.5C 263.167,447.333 262.833,447.167 262.5,447C 263.929,444.31 264.929,441.477 265.5,438.5C 264.167,438.5 262.833,438.5 261.5,438.5 Z"/></g>
<g><path style="opacity:1" fill="#323232" d="M 566.5,437.5 C 572.324,437.347 572.657,438.013 567.5,439.5C 572.348,440.769 573.348,443.269 570.5,447C 568.833,447.667 567.167,447.667 565.5,447C 569.638,447.218 570.972,445.552 569.5,442C 568.552,441.517 567.552,441.351 566.5,441.5C 566.5,440.167 566.5,438.833 566.5,437.5 Z"/></g>
<g><path style="opacity:1" fill="#3b3b3b" d="M 385.5,437.5 C 392.737,438.272 393.403,441.106 387.5,446C 388.833,446.333 390.167,446.667 391.5,447C 384.898,448.074 384.065,446.574 389,442.5C 389.49,441.207 389.657,439.873 389.5,438.5C 388.178,438.33 387.011,438.663 386,439.5C 385.536,438.906 385.369,438.239 385.5,437.5 Z"/></g>
<g><path style="opacity:1" fill="#414141" d="M 443.5,439.5 C 445.077,436.983 446.91,436.983 449,439.5C 450.689,445.466 448.689,447.799 443,446.5C 442.204,443.961 442.371,441.628 443.5,439.5 Z"/></g>
<g><path style="opacity:1" fill="#e7e7e7" d="M 443.5,439.5 C 444.688,438.316 445.855,438.316 447,439.5C 447.667,441.5 447.667,443.5 447,445.5C 446.586,445.957 446.086,446.291 445.5,446.5C 443.829,444.49 443.162,442.157 443.5,439.5 Z"/></g>
<g><path style="opacity:1" fill="#424242" d="M 456.5,438.5 C 458.153,437.201 459.653,437.534 461,439.5C 461.667,441.5 461.667,443.5 461,445.5C 459,448.167 457,448.167 455,445.5C 454.333,443.5 454.333,441.5 455,439.5C 455.383,438.944 455.883,438.611 456.5,438.5 Z"/></g>
<g><path style="opacity:1" fill="#e1e1e1" d="M 456.5,438.5 C 457.496,438.414 458.329,438.748 459,439.5C 459.497,441.81 459.663,444.143 459.5,446.5C 457.876,446.64 456.71,445.973 456,444.5C 455.51,442.455 455.677,440.455 456.5,438.5 Z"/></g>
<g><path style="opacity:1" fill="#262626" d="M 328.5,442.5 C 330.163,447 328.497,448.5 323.5,447C 326.901,447.266 328.567,445.766 328.5,442.5 Z"/></g>
<g><path style="opacity:1" fill="#464646" d="M 579.5,437.5 C 584.66,438.68 585.827,441.68 583,446.5C 579.276,448.042 577.443,446.709 577.5,442.5C 577.437,440.486 578.103,438.819 579.5,437.5 Z"/></g>
<g><path style="opacity:1" fill="#f7f7f7" d="M 580.5,438.5 C 582.951,440.916 583.117,443.583 581,446.5C 579.188,443.954 579.022,441.288 580.5,438.5 Z"/></g>
<g><path style="opacity:1" fill="#3d3d3d" d="M 339.5,458.5 C 341.369,460.889 343.203,460.889 345,458.5C 345.333,460.047 344.833,461.38 343.5,462.5C 346.328,466.198 345.995,466.865 342.5,464.5C 339.005,466.865 338.672,466.198 341.5,462.5C 340.37,461.378 339.703,460.044 339.5,458.5 Z"/></g>
<g><path style="opacity:1" fill="#1e1e1e" d="M 320.5,458.5 C 324.893,458.457 325.226,458.957 321.5,460C 319.682,463.387 320.682,465.387 324.5,466C 322.888,466.72 321.388,466.554 320,465.5C 319.297,463.071 319.463,460.738 320.5,458.5 Z"/></g>
<g><path style="opacity:1" fill="#343434" d="M 327.5,458.5 C 328.404,459.209 328.737,460.209 328.5,461.5C 332.676,460.831 334.009,462.331 332.5,466C 330.866,466.494 329.199,466.66 327.5,466.5C 327.5,463.833 327.5,461.167 327.5,458.5 Z"/></g>
<g><path style="opacity:1" fill="#363636" d="M 310.5,456.5 C 317.628,456.706 319.294,459.873 315.5,466C 309.498,466.993 307.332,464.493 309,458.5C 309.717,457.956 310.217,457.289 310.5,456.5 Z"/></g>
<g><path style="opacity:1" fill="#e8e8e8" d="M 311.5,457.5 C 312.822,457.33 313.989,457.663 315,458.5C 315.667,460.5 315.667,462.5 315,464.5C 311.958,465.986 310.125,464.986 309.5,461.5C 309.752,459.927 310.418,458.594 311.5,457.5 Z"/></g>
<g><path style="opacity:1" fill="#e1e1e1" d="M 328.5,462.5 C 329.5,462.5 330.5,462.5 331.5,462.5C 331.5,463.5 331.5,464.5 331.5,465.5C 330.5,465.5 329.5,465.5 328.5,465.5C 328.5,464.5 328.5,463.5 328.5,462.5 Z"/></g>
</svg>
