<?xml version="1.0" encoding="UTF-8"?>
<!DOCTYPE svg PUBLIC "-//W3C//DTD SVG 1.1//EN" "http://www.w3.org/Graphics/SVG/1.1/DTD/svg11.dtd">
<svg xmlns="http://www.w3.org/2000/svg" version="1.1" width="640px" height="480px" style="shape-rendering:geometricPrecision; text-rendering:geometricPrecision; image-rendering:optimizeQuality; fill-rule:evenodd; clip-rule:evenodd" xmlns:xlink="http://www.w3.org/1999/xlink">
<g><path style="opacity:1" fill="#fefefe" d="M -0.5,-0.5 C 212.833,-0.5 426.167,-0.5 639.5,-0.5C 639.5,159.5 639.5,319.5 639.5,479.5C 426.167,479.5 212.833,479.5 -0.5,479.5C -0.5,319.5 -0.5,159.5 -0.5,-0.5 Z"/></g>
<g><path style="opacity:1" fill="#050505" d="M 283.5,35.5 C 285.857,35.3367 288.19,35.5034 290.5,36C 288.527,36.4955 286.527,36.6621 284.5,36.5C 284.666,40.5138 284.499,44.5138 284,48.5C 283.501,44.1794 283.334,39.8461 283.5,35.5 Z"/></g>
<g><path style="opacity:1" fill="#282828" d="M 293.5,38.5 C 295.314,38.7721 297.314,38.9387 299.5,39C 302.167,42 302.167,45 299.5,48C 297.888,48.7203 296.388,48.5536 295,47.5C 294.667,49.1667 294.333,50.8333 294,52.5C 293.501,47.8452 293.334,43.1785 293.5,38.5 Z"/></g>
<g><path style="opacity:1" fill="#e5e5e5" d="M 294.5,40.5 C 296.167,40.5 297.833,40.5 299.5,40.5C 299.5,42.5 299.5,44.5 299.5,46.5C 295.092,46.938 293.425,44.938 294.5,40.5 Z"/></g>
<g><path style="opacity:1" fill="#383838" d="M 348.5,38.5 C 350.164,39.9488 350.998,41.9488 351,44.5C 351.782,41.9242 353.282,39.9242 355.5,38.5C 356.833,41.8333 356.833,45.1667 355.5,48.5C 354.692,46.5767 354.192,44.5767 354,42.5C 352.732,44.7173 351.232,46.7173 349.5,48.5C 348.513,45.2317 348.18,41.8984 348.5,38.5 Z"/></g>
<g><path style="opacity:1" fill="#252525" d="M 309.5,48.5 C 309.082,47.7784 308.416,47.2784 307.5,47C 308.973,46.2904 309.64,45.1238 309.5,43.5C 306.05,42.7564 304.384,44.0897 304.5,47.5C 303.402,46.3991 303.235,45.0657 304,43.5C 309.927,42.0188 309.76,40.6855 303.5,39.5C 305.421,38.359 307.421,38.1923 309.5,39C 310.818,42.2688 310.818,45.4355 309.5,48.5 Z"/></g>
<g><path style="opacity:1" fill="#343434" d="M 338.5,38.5 C 339.931,38.8807 340.764,39.8807 341,41.5C 345.16,37.3272 345.993,37.6605 343.5,42.5C 344.26,44.4366 345.26,46.2699 346.5,48C 345.833,48.6667 345.167,48.6667 344.5,48C 342.343,43.255 340.676,43.4217 339.5,48.5C 338.513,45.2317 338.18,41.8984 338.5,38.5 Z"/></g>
<g><path style="opacity:1" fill="#2c2c2c" d="M 318.5,35.5 C 320.048,35.8212 320.715,36.8212 320.5,38.5C 325.151,39.1742 326.651,41.8408 325,46.5C 323.89,48.0368 322.39,48.7035 320.5,48.5C 320.762,49.9778 320.429,51.3112 319.5,52.5C 318.702,50.9223 318.202,49.2556 318,47.5C 316.667,48.8333 315.333,48.8333 314,47.5C 313.333,44.8333 313.333,42.1667 314,39.5C 315.333,38.1667 316.667,38.1667 318,39.5C 318.49,38.2068 318.657,36.8734 318.5,35.5 Z"/></g>
<g><path style="opacity:1" fill="#f4f4f4" d="M 320.5,40.5 C 321.5,40.5 322.5,40.5 323.5,40.5C 323.5,42.5 323.5,44.5 323.5,46.5C 322.5,46.5 321.5,46.5 320.5,46.5C 320.5,44.5 320.5,42.5 320.5,40.5 Z"/></g>
<g><path style="opacity:1" fill="#e9e9e9" d="M 315.5,40.5 C 316.5,40.5 317.5,40.5 318.5,40.5C 318.5,42.5 318.5,44.5 318.5,46.5C 314.556,46.1156 313.556,44.1156 315.5,40.5 Z"/></g>
<g><path style="opacity:1" fill="#2e2e2e" d="M 327.5,38.5 C 329.197,40.3052 330.03,42.6385 330,45.5C 331.015,42.7899 332.515,40.4566 334.5,38.5C 335.657,41.7844 335.824,45.1177 335,48.5C 335.186,39.5467 333.686,39.2133 330.5,47.5C 329.675,48.3857 328.675,48.719 327.5,48.5C 327.5,45.1667 327.5,41.8333 327.5,38.5 Z"/></g>
<g><path style="opacity:1" fill="#232323" d="M 365.5,35.5 C 366.833,35.5 368.167,35.5 369.5,35.5C 368.945,39.9971 369.611,44.1638 371.5,48C 369.421,48.8077 367.421,48.641 365.5,47.5C 368.022,43.5087 368.022,39.5087 365.5,35.5 Z"/></g>
<g><path style="opacity:1" fill="#7f7f7f" d="M 309.5,48.5 C 307.585,48.7845 305.919,48.4511 304.5,47.5C 304.384,44.0897 306.05,42.7564 309.5,43.5C 309.64,45.1238 308.973,46.2904 307.5,47C 308.416,47.2784 309.082,47.7784 309.5,48.5 Z"/></g>
<g><path style="opacity:1" fill="#111111" d="M 45.5,53.5 C 46.209,52.596 47.209,52.2627 48.5,52.5C 48.5,55.5 48.5,58.5 48.5,61.5C 51.2627,62.4551 50.2627,62.6218 45.5,62C 46.6841,60.8197 47.3507,59.3197 47.5,57.5C 47.4146,55.6672 46.7479,54.3339 45.5,53.5 Z"/></g>
<g><path style="opacity:1" fill="#414141" d="M 53.5,52.5 C 59.7863,53.3146 61.1196,56.4812 57.5,62C 55.8876,62.7203 54.3876,62.5536 53,61.5C 52.2642,58.408 52.4309,55.408 53.5,52.5 Z"/></g>
<g><path style="opacity:1" fill="#e9e9e9" d="M 54.5,53.5 C 56.8896,53.6848 57.8896,55.0182 57.5,57.5C 56.3126,62.7522 54.9793,62.7522 53.5,57.5C 53.8457,56.1508 54.179,54.8175 54.5,53.5 Z"/></g>
<g><path style="opacity:1" fill="#2f2f2f" d="M 62.5,52.5 C 64.1439,52.2865 65.6439,52.6198 67,53.5C 67.7772,56.4294 67.6105,59.2628 66.5,62C 64.8876,62.7203 63.3876,62.5536 62,61.5C 61.2642,58.408 61.4309,55.408 62.5,52.5 Z"/></g>
<g><path style="opacity:1" fill="#f1f1f1" d="M 63.5,53.5 C 67.0433,55.693 67.3766,58.3596 64.5,61.5C 62.2251,59.1682 61.8918,56.5016 63.5,53.5 Z"/></g>
<g><path style="opacity:1" fill="#010101" d="M 75.5,58.5 C 242.333,57.5003 409.333,57.167 576.5,57.5C 576.833,183.522 576.5,306.855 575.5,427.5C 548.167,427.5 520.833,427.5 493.5,427.5C 493.167,432.833 492.833,432.833 492.5,427.5C 465.5,427.5 438.5,427.5 411.5,427.5C 411.167,432.833 410.833,432.833 410.5,427.5C 383.167,427.5 355.833,427.5 328.5,427.5C 328.167,432.833 327.833,432.833 327.5,427.5C 300.167,427.5 272.833,427.5 245.5,427.5C 245.167,432.833 244.833,432.833 244.5,427.5C 217.5,427.5 190.5,427.5 163.5,427.5C 163.167,432.833 162.833,432.833 162.5,427.5C 135.167,427.5 107.833,427.5 80.5,427.5C 80.1667,432.833 79.8333,432.833 79.5,427.5C 74.1667,427.167 74.1667,426.833 79.5,426.5C 79.5,406.5 79.5,386.5 79.5,366.5C 74.1667,366.167 74.1667,365.833 79.5,365.5C 79.5,345.167 79.5,324.833 79.5,304.5C 74.1667,304.167 74.1667,303.833 79.5,303.5C 79.5,283.167 79.5,262.833 79.5,242.5C 74.1667,242.167 74.1667,241.833 79.5,241.5C 79.5,221.5 79.5,201.5 79.5,181.5C 72.8333,181.167 72.8333,180.833 79.5,180.5C 79.5,160.167 79.5,139.833 79.5,119.5C 72.8333,119.167 72.8333,118.833 79.5,118.5C 79.5,98.5 79.5,78.5 79.5,58.5C 78.1667,58.5 76.8333,58.5 75.5,58.5 Z"/></g>
<g><path style="opacity:1" fill="#fefefe" d="M 162.5,58.5 C 162.5,78.5 162.5,98.5 162.5,118.5C 135.167,118.5 107.833,118.5 80.5,118.5C 80.5,98.5 80.5,78.5 80.5,58.5C 107.833,58.5 135.167,58.5 162.5,58.5 Z"/></g>
<g><path style="opacity:1" fill="#fefefe" d="M 245.5,58.5 C 271.833,58.5 298.167,58.5 324.5,58.5C 324.5,58.8333 324.5,59.1667 324.5,59.5C 324.606,79.1765 324.272,98.8432 323.5,118.5C 297.5,118.5 271.5,118.5 245.5,118.5C 245.5,98.5 245.5,78.5 245.5,58.5 Z"/></g>
<g><path style="opacity:1" fill="#fefefe" d="M 331.5,58.5 C 357.833,58.5 384.167,58.5 410.5,58.5C 410.5,78.5 410.5,98.5 410.5,118.5C 384.167,118.5 357.833,118.5 331.5,118.5C 331.564,98.393 331.564,78.393 331.5,58.5 Z"/></g>
<g><path style="opacity:1" fill="#b4eeb4" d="M 324.5,59.5 C 324.5,59.1667 324.5,58.8333 324.5,58.5C 326.833,58.5 329.167,58.5 331.5,58.5C 331.564,78.393 331.564,98.393 331.5,118.5C 331.5,118.833 331.5,119.167 331.5,119.5C 331.5,139.833 331.5,160.167 331.5,180.5C 331.165,139.99 330.165,99.6563 328.5,59.5C 327.833,79.1667 327.167,98.8333 326.5,118.5C 327.154,98.4716 326.488,78.8049 324.5,59.5 Z"/></g>
<g><path style="opacity:1" fill="#3e3e3e" d="M 63.5,116.5 C 64.5718,114.16 66.2385,113.827 68.5,115.5C 69.8568,118.527 69.5235,121.36 67.5,124C 65.8876,124.72 64.3876,124.554 63,123.5C 62.2042,120.961 62.3709,118.628 63.5,116.5 Z"/></g>
<g><path style="opacity:1" fill="#404040" d="M 54.5,114.5 C 56.4672,114.261 58.3005,114.594 60,115.5C 59.7862,118.06 59.7862,120.726 60,123.5C 58.2739,124.576 56.4406,124.743 54.5,124C 53.4829,122.951 53.3162,121.784 54,120.5C 54.5885,122.863 56.0885,123.863 58.5,123.5C 58.5,122.167 58.5,120.833 58.5,119.5C 54.5,119.167 54.5,118.833 58.5,118.5C 58.5,117.5 58.5,116.5 58.5,115.5C 57.1779,115.33 56.0113,115.663 55,116.5C 54.5357,115.906 54.369,115.239 54.5,114.5 Z"/></g>
<g><path style="opacity:1" fill="#e5e5e5" d="M 63.5,116.5 C 64.6879,115.316 65.8545,115.316 67,116.5C 67.6667,118.5 67.6667,120.5 67,122.5C 66,123.833 65,123.833 64,122.5C 63.5045,120.527 63.3379,118.527 63.5,116.5 Z"/></g>
<g><path style="opacity:1" fill="#fafbf9" d="M 493.5,58.5 C 520.833,58.5 548.167,58.5 575.5,58.5C 575.5,78.5 575.5,98.5 575.5,118.5C 573.5,118.5 571.5,118.5 569.5,118.5C 569.667,101.163 569.5,83.8301 569,66.5C 568.667,108.5 568.333,150.5 568,192.5C 549.24,193.659 530.407,193.825 511.5,193C 510.536,188.934 510.203,184.767 510.5,180.5C 504.833,180.5 499.167,180.5 493.5,180.5C 493.5,160.167 493.5,139.833 493.5,119.5C 516.167,119.167 516.167,118.833 493.5,118.5C 493.5,98.5 493.5,78.5 493.5,58.5 Z"/></g>
<g><path style="opacity:1" fill="#fefefe" d="M 80.5,119.5 C 107.833,119.5 135.167,119.5 162.5,119.5C 162.5,139.833 162.5,160.167 162.5,180.5C 135.167,180.5 107.833,180.5 80.5,180.5C 80.5,160.167 80.5,139.833 80.5,119.5 Z"/></g>
<g><path style="opacity:1" fill="#fefefe" d="M 322.5,119.5 C 322.5,139.833 322.5,160.167 322.5,180.5C 296.833,180.5 271.167,180.5 245.5,180.5C 245.5,160.167 245.5,139.833 245.5,119.5C 271.167,119.5 296.833,119.5 322.5,119.5 Z"/></g>
<g><path style="opacity:1" fill="#fefefe" d="M 332.5,119.5 C 358.5,119.5 384.5,119.5 410.5,119.5C 410.5,139.833 410.5,160.167 410.5,180.5C 384.5,180.5 358.5,180.5 332.5,180.5C 332.5,160.167 332.5,139.833 332.5,119.5 Z"/></g>
<g><path style="opacity:1" fill="#fafafa" d="M 575.5,119.5 C 575.5,139.833 575.5,160.167 575.5,180.5C 573.5,180.5 571.5,180.5 569.5,180.5C 569.5,160.167 569.5,139.833 569.5,119.5C 571.5,119.5 573.5,119.5 575.5,119.5 Z"/></g>
<g><path style="opacity:1" fill="#8bbd8a" d="M 328.5,59.5 C 328.5,82.1667 328.5,104.833 328.5,127.5C 327.833,124.833 327.167,122.167 326.5,119.5C 326.5,119.167 326.5,118.833 326.5,118.5C 327.167,98.8333 327.833,79.1667 328.5,59.5 Z"/></g>
<g><path style="opacity:1" fill="#fefefe" d="M 80.5,181.5 C 107.833,181.5 135.167,181.5 162.5,181.5C 162.5,201.5 162.5,221.5 162.5,241.5C 135.167,241.5 107.833,241.5 80.5,241.5C 80.5,221.5 80.5,201.5 80.5,181.5 Z"/></g>
<g><path style="opacity:1" fill="#fefefe" d="M 575.5,181.5 C 575.5,201.5 575.5,221.5 575.5,241.5C 548.167,241.5 520.833,241.5 493.5,241.5C 493.5,221.5 493.5,201.5 493.5,181.5C 498.833,181.5 504.167,181.5 509.5,181.5C 509.5,185.833 509.5,190.167 509.5,194.5C 529.5,194.5 549.5,194.5 569.5,194.5C 569.5,190.167 569.5,185.833 569.5,181.5C 571.5,181.5 573.5,181.5 575.5,181.5 Z"/></g>
<g><path style="opacity:1" fill="#434343" d="M 55.5,175.5 C 56.8734,175.343 58.2068,175.51 59.5,176C 54.1676,177.572 54.3342,178.739 60,179.5C 61.0657,185.56 59.0657,186.894 54,183.5C 53.1093,180.502 53.6093,177.836 55.5,175.5 Z"/></g>
<g><path style="opacity:1" fill="#f2f2f2" d="M 55.5,180.5 C 56.5,180.5 57.5,180.5 58.5,180.5C 58.762,181.978 58.4287,183.311 57.5,184.5C 55.8888,183.68 55.2222,182.346 55.5,180.5 Z"/></g>
<g><path style="opacity:1" fill="#b1b1b1" d="M 162.5,58.5 C 162.833,58.5 163.167,58.5 163.5,58.5C 163.5,78.5 163.5,98.5 163.5,118.5C 190.5,118.5 217.5,118.5 244.5,118.5C 244.5,98.5 244.5,78.5 244.5,58.5C 244.833,58.5 245.167,58.5 245.5,58.5C 245.5,78.5 245.5,98.5 245.5,118.5C 271.5,118.5 297.5,118.5 323.5,118.5C 323.5,118.833 323.5,119.167 323.5,119.5C 323.167,119.5 322.833,119.5 322.5,119.5C 296.833,119.5 271.167,119.5 245.5,119.5C 245.5,139.833 245.5,160.167 245.5,180.5C 271.167,180.5 296.833,180.5 322.5,180.5C 322.5,180.833 322.5,181.167 322.5,181.5C 296.833,181.5 271.167,181.5 245.5,181.5C 245.5,201.5 245.5,221.5 245.5,241.5C 271.167,241.5 296.833,241.5 322.5,241.5C 297.005,242.498 271.339,242.831 245.5,242.5C 245.5,262.833 245.5,283.167 245.5,303.5C 270.833,303.5 296.167,303.5 321.5,303.5C 321.5,303.833 321.5,304.167 321.5,304.5C 296.167,304.5 270.833,304.5 245.5,304.5C 245.5,322.833 245.5,341.167 245.5,359.5C 245.167,359.5 244.833,359.5 244.5,359.5C 244.5,341.167 244.5,322.833 244.5,304.5C 217.5,304.5 190.5,304.5 163.5,304.5C 163.5,322.833 163.5,341.167 163.5,359.5C 163.167,359.5 162.833,359.5 162.5,359.5C 162.5,341.167 162.5,322.833 162.5,304.5C 135.167,304.5 107.833,304.5 80.5,304.5C 80.5,304.167 80.5,303.833 80.5,303.5C 107.833,303.5 135.167,303.5 162.5,303.5C 162.5,283.167 162.5,262.833 162.5,242.5C 135.167,242.5 107.833,242.5 80.5,242.5C 80.5,242.167 80.5,241.833 80.5,241.5C 107.833,241.5 135.167,241.5 162.5,241.5C 162.5,221.5 162.5,201.5 162.5,181.5C 135.167,181.5 107.833,181.5 80.5,181.5C 80.5,181.167 80.5,180.833 80.5,180.5C 107.833,180.5 135.167,180.5 162.5,180.5C 162.5,160.167 162.5,139.833 162.5,119.5C 135.167,119.5 107.833,119.5 80.5,119.5C 80.5,119.167 80.5,118.833 80.5,118.5C 107.833,118.5 135.167,118.5 162.5,118.5C 162.5,98.5 162.5,78.5 162.5,58.5 Z"/></g>
<g><path style="opacity:1" fill="#fefefe" d="M 163.5,181.5 C 190.5,181.5 217.5,181.5 244.5,181.5C 244.5,201.5 244.5,221.5 244.5,241.5C 217.5,241.5 190.5,241.5 163.5,241.5C 163.5,221.5 163.5,201.5 163.5,181.5 Z"/></g>
<g><path style="opacity:1" fill="#fefefe" d="M 163.5,119.5 C 190.5,119.5 217.5,119.5 244.5,119.5C 244.5,139.833 244.5,160.167 244.5,180.5C 217.5,180.5 190.5,180.5 163.5,180.5C 163.5,160.167 163.5,139.833 163.5,119.5 Z"/></g>
<g><path style="opacity:1" fill="#fefefe" d="M 163.5,58.5 C 190.5,58.5 217.5,58.5 244.5,58.5C 244.5,78.5 244.5,98.5 244.5,118.5C 217.5,118.5 190.5,118.5 163.5,118.5C 163.5,98.5 163.5,78.5 163.5,58.5 Z"/></g>
<g><path style="opacity:1" fill="#fefefe" d="M 322.5,181.5 C 322.5,201.5 322.5,221.5 322.5,241.5C 296.833,241.5 271.167,241.5 245.5,241.5C 245.5,221.5 245.5,201.5 245.5,181.5C 271.167,181.5 296.833,181.5 322.5,181.5 Z"/></g>
<g><path style="opacity:1" fill="#fefefe" d="M 332.5,181.5 C 358.5,181.5 384.5,181.5 410.5,181.5C 410.5,201.5 410.5,221.5 410.5,241.5C 384.5,241.5 358.5,241.5 332.5,241.5C 332.5,221.5 332.5,201.5 332.5,181.5 Z"/></g>
<g><path style="opacity:1" fill="#3c3c3c" d="M 63.5,183.5 C 62.3709,181.372 62.2042,179.039 63,176.5C 68.6889,175.201 70.6889,177.534 69,183.5C 66.9104,186.017 65.0771,186.017 63.5,183.5 Z"/></g>
<g><path style="opacity:1" fill="#e9e9e9" d="M 63.5,183.5 C 63.162,180.843 63.8287,178.51 65.5,176.5C 66.086,176.709 66.586,177.043 67,177.5C 67.6667,179.5 67.6667,181.5 67,183.5C 65.8545,184.684 64.6879,184.684 63.5,183.5 Z"/></g>
<g><path style="opacity:1" fill="#bec7bc" d="M 326.5,119.5 C 327.167,122.167 327.833,124.833 328.5,127.5C 328.5,138.167 328.5,148.833 328.5,159.5C 328.5,180.833 328.5,202.167 328.5,223.5C 328.167,223.5 327.833,223.5 327.5,223.5C 327.23,196.832 326.897,170.166 326.5,143.5C 326.5,135.5 326.5,127.5 326.5,119.5 Z"/></g>
<g><path style="opacity:1" fill="#277d2a" d="M 328.5,59.5 C 330.165,99.6563 331.165,139.99 331.5,180.5C 330.901,230.532 331.734,280.532 334,330.5C 334.995,335.453 335.662,340.453 336,345.5C 336.236,347.811 337.069,349.811 338.5,351.5C 338.062,351.435 337.728,351.601 337.5,352C 339.167,353.667 340.833,355.333 342.5,357C 348.599,359.058 354.932,360.225 361.5,360.5C 405.33,361.499 449.33,361.832 493.5,361.5C 449.67,362.499 405.67,362.832 361.5,362.5C 354.627,362.78 347.961,361.78 341.5,359.5C 338.842,357.032 336.509,354.365 334.5,351.5C 334.167,349.5 333.833,347.5 333.5,345.5C 331.589,331.597 330.589,317.597 330.5,303.5C 330.5,302.167 330.5,300.833 330.5,299.5C 329.884,252.675 329.218,206.008 328.5,159.5C 328.5,148.833 328.5,138.167 328.5,127.5C 328.5,104.833 328.5,82.1667 328.5,59.5 Z"/></g>
<g><path style="opacity:1" fill="#373737" d="M 28.5,228.5 C 27.2529,226.822 25.5862,225.489 23.5,224.5C 23.6667,224.167 23.8333,223.833 24,223.5C 27.3237,225.33 30.8237,226.663 34.5,227.5C 34.6495,228.552 34.4828,229.552 34,230.5C 32.5993,228.808 30.7659,228.141 28.5,228.5 Z"/></g>
<g><path style="opacity:1" fill="#383838" d="M 28.5,228.5 C 27.2015,230.099 25.5348,230.599 23.5,230C 25.0249,228.991 26.6916,228.491 28.5,228.5 Z"/></g>
<g><path style="opacity:1" fill="#232323" d="M 27.5,236.5 C 31.0681,236.759 32.4015,238.759 31.5,242.5C 28.8127,242.664 26.146,242.497 23.5,242C 24.448,241.517 25.448,241.351 26.5,241.5C 26.366,239.708 26.6993,238.042 27.5,236.5 Z"/></g>
<g><path style="opacity:1" fill="#d5d5d5" d="M 27.5,238.5 C 28.5,238.5 29.5,238.5 30.5,238.5C 30.5,239.5 30.5,240.5 30.5,241.5C 29.5,241.5 28.5,241.5 27.5,241.5C 27.5,240.5 27.5,239.5 27.5,238.5 Z"/></g>
<g><path style="opacity:1" fill="#fefefe" d="M 80.5,242.5 C 107.833,242.5 135.167,242.5 162.5,242.5C 162.5,262.833 162.5,283.167 162.5,303.5C 135.167,303.5 107.833,303.5 80.5,303.5C 80.5,283.167 80.5,262.833 80.5,242.5 Z"/></g>
<g><path style="opacity:1" fill="#fefefe" d="M 163.5,242.5 C 190.5,242.5 217.5,242.5 244.5,242.5C 244.5,262.833 244.5,283.167 244.5,303.5C 217.5,303.5 190.5,303.5 163.5,303.5C 163.5,283.167 163.5,262.833 163.5,242.5 Z"/></g>
<g><path style="opacity:1" fill="#fefefe" d="M 575.5,242.5 C 575.5,262.833 575.5,283.167 575.5,303.5C 548.167,303.5 520.833,303.5 493.5,303.5C 493.5,283.167 493.5,262.833 493.5,242.5C 520.833,242.5 548.167,242.5 575.5,242.5 Z"/></g>
<g><path style="opacity:1" fill="#454545" d="M 56.5,237.5 C 57.5,237.5 58.5,237.5 59.5,237.5C 59.2436,239.792 59.5769,241.959 60.5,244C 59.9288,245.205 59.2621,246.372 58.5,247.5C 57.6143,246.675 57.281,245.675 57.5,244.5C 56.1667,244.5 54.8333,244.5 53.5,244.5C 54.0427,241.962 55.0427,239.628 56.5,237.5 Z"/></g>
<g><path style="opacity:1" fill="#fdfefd" d="M 322.5,119.5 C 322.833,119.5 323.167,119.5 323.5,119.5C 323.667,175.501 323.5,231.501 323,287.5C 322.827,293.016 322.327,298.349 321.5,303.5C 296.167,303.5 270.833,303.5 245.5,303.5C 245.5,283.167 245.5,262.833 245.5,242.5C 271.339,242.831 297.005,242.498 322.5,241.5C 322.5,221.5 322.5,201.5 322.5,181.5C 322.5,181.167 322.5,180.833 322.5,180.5C 322.5,160.167 322.5,139.833 322.5,119.5 Z"/></g>
<g><path style="opacity:1" fill="#333333" d="M 62.5,237.5 C 68.7863,238.315 70.1196,241.481 66.5,247C 64.8876,247.72 63.3876,247.554 62,246.5C 61.2642,243.408 61.4309,240.408 62.5,237.5 Z"/></g>
<g><path style="opacity:1" fill="#eaeaea" d="M 63.5,238.5 C 65.8896,238.685 66.8896,240.018 66.5,242.5C 65.1667,247.833 63.8333,247.833 62.5,242.5C 62.6233,241.075 62.9566,239.742 63.5,238.5 Z"/></g>
<g><path style="opacity:1" fill="#2d2d2d" d="M 23.5,245.5 C 25.7387,250.832 28.2387,250.832 31,245.5C 31.6667,246.833 31.6667,248.167 31,249.5C 28.9361,250.591 26.7695,250.758 24.5,250C 23.6198,248.644 23.2865,247.144 23.5,245.5 Z"/></g>
<g><path style="opacity:1" fill="#353535" d="M 22.5,255.5 C 22.4142,254.504 22.7476,253.671 23.5,253C 30.9945,251.813 32.9945,254.479 29.5,261C 23.7013,262.673 21.368,260.839 22.5,255.5 Z"/></g>
<g><path style="opacity:1" fill="#e6e6e6" d="M 22.5,255.5 C 24.7375,254.463 27.0709,254.297 29.5,255C 30.9865,258.042 29.9865,259.875 26.5,260.5C 23.6857,260.019 22.3524,258.352 22.5,255.5 Z"/></g>
<g><path style="opacity:1" fill="#c9f1c7" d="M 328.5,159.5 C 329.218,206.008 329.884,252.675 330.5,299.5C 329.883,299.389 329.383,299.056 329,298.5C 328.5,273.502 328.333,248.502 328.5,223.5C 328.5,202.167 328.5,180.833 328.5,159.5 Z"/></g>
<g><path style="opacity:1" fill="#b7a5c6" d="M 327.5,223.5 C 327.833,223.5 328.167,223.5 328.5,223.5C 328.333,248.502 328.5,273.502 329,298.5C 329.383,299.056 329.883,299.389 330.5,299.5C 330.5,300.833 330.5,302.167 330.5,303.5C 329.732,302.737 329.232,301.737 329,300.5C 328.418,307.852 328.585,315.185 329.5,322.5C 328.833,321.5 328.167,320.5 327.5,319.5C 327.332,287.357 327.332,255.357 327.5,223.5 Z"/></g>
<g><path style="opacity:1" fill="#b3b3b4" d="M 410.5,58.5 C 410.833,58.5 411.167,58.5 411.5,58.5C 411.5,78.5 411.5,98.5 411.5,118.5C 438.5,118.5 465.5,118.5 492.5,118.5C 492.5,98.5 492.5,78.5 492.5,58.5C 492.833,58.5 493.167,58.5 493.5,58.5C 493.5,78.5 493.5,98.5 493.5,118.5C 516.167,118.833 516.167,119.167 493.5,119.5C 493.5,139.833 493.5,160.167 493.5,180.5C 499.167,180.5 504.833,180.5 510.5,180.5C 510.203,184.767 510.536,188.934 511.5,193C 530.407,193.825 549.24,193.659 568,192.5C 568.333,150.5 568.667,108.5 569,66.5C 569.5,83.8301 569.667,101.163 569.5,118.5C 571.5,118.5 573.5,118.5 575.5,118.5C 575.5,118.833 575.5,119.167 575.5,119.5C 573.5,119.5 571.5,119.5 569.5,119.5C 569.5,139.833 569.5,160.167 569.5,180.5C 571.5,180.5 573.5,180.5 575.5,180.5C 575.5,180.833 575.5,181.167 575.5,181.5C 573.5,181.5 571.5,181.5 569.5,181.5C 569.5,185.833 569.5,190.167 569.5,194.5C 549.5,194.5 529.5,194.5 509.5,194.5C 509.5,190.167 509.5,185.833 509.5,181.5C 504.167,181.5 498.833,181.5 493.5,181.5C 493.5,201.5 493.5,221.5 493.5,241.5C 520.833,241.5 548.167,241.5 575.5,241.5C 575.5,241.833 575.5,242.167 575.5,242.5C 548.167,242.5 520.833,242.5 493.5,242.5C 493.5,262.833 493.5,283.167 493.5,303.5C 520.833,303.5 548.167,303.5 575.5,303.5C 575.5,303.833 575.5,304.167 575.5,304.5C 548.167,304.5 520.833,304.5 493.5,304.5C 493.192,323.546 493.525,342.546 494.5,361.5C 494.167,361.5 493.833,361.5 493.5,361.5C 478.167,360.833 462.833,360.167 447.5,359.5C 462.5,359.5 477.5,359.5 492.5,359.5C 492.5,341.167 492.5,322.833 492.5,304.5C 465.5,304.5 438.5,304.5 411.5,304.5C 411.167,376.5 410.833,376.5 410.5,304.5C 309.167,304.167 309.167,303.833 410.5,303.5C 410.5,283.167 410.5,262.833 410.5,242.5C 384.328,242.831 358.328,242.498 332.5,241.5C 358.5,241.5 384.5,241.5 410.5,241.5C 410.5,221.5 410.5,201.5 410.5,181.5C 384.5,181.5 358.5,181.5 332.5,181.5C 332.5,181.167 332.5,180.833 332.5,180.5C 358.5,180.5 384.5,180.5 410.5,180.5C 410.5,160.167 410.5,139.833 410.5,119.5C 384.5,119.5 358.5,119.5 332.5,119.5C 332.167,119.5 331.833,119.5 331.5,119.5C 331.5,119.167 331.5,118.833 331.5,118.5C 357.833,118.5 384.167,118.5 410.5,118.5C 410.5,98.5 410.5,78.5 410.5,58.5 Z"/></g>
<g><path style="opacity:1" fill="#fefefe" d="M 411.5,242.5 C 438.5,242.5 465.5,242.5 492.5,242.5C 492.5,262.833 492.5,283.167 492.5,303.5C 465.5,303.5 438.5,303.5 411.5,303.5C 411.5,283.167 411.5,262.833 411.5,242.5 Z"/></g>
<g><path style="opacity:1" fill="#fefefe" d="M 411.5,181.5 C 438.5,181.5 465.5,181.5 492.5,181.5C 492.5,201.5 492.5,221.5 492.5,241.5C 465.5,241.5 438.5,241.5 411.5,241.5C 411.5,221.5 411.5,201.5 411.5,181.5 Z"/></g>
<g><path style="opacity:1" fill="#4d4e4e" d="M 555.5,175.5 C 557.467,175.261 559.301,175.594 561,176.5C 561.373,178.698 561.873,180.865 562.5,183C 562.355,183.772 562.022,184.439 561.5,185C 559.421,185.808 557.421,185.641 555.5,184.5C 556.582,184.251 557.915,184.085 559.5,184C 560.791,181.91 560.124,180.576 557.5,180C 558.624,179.751 559.624,179.251 560.5,178.5C 558.345,177.999 556.678,176.999 555.5,175.5 Z"/></g>
<g><path style="opacity:1" fill="#157815" d="M 514.5,179.5 C 524.522,179.168 534.522,179.501 544.5,180.5C 539.5,180.833 534.5,181.167 529.5,181.5C 524.119,181.494 519.119,180.828 514.5,179.5 Z"/></g>
<g><path style="opacity:1" fill="#3d3d3d" d="M 560.5,158.5 C 563.6,163.916 561.934,165.75 555.5,164C 557.101,163.727 558.601,163.227 560,162.5C 560.448,160.591 559.615,159.424 557.5,159C 558.448,158.517 559.448,158.351 560.5,158.5 Z"/></g>
<g><path style="opacity:1" fill="#1a7115" d="M 514.5,158.5 C 524.522,158.168 534.522,158.501 544.5,159.5C 539.5,159.833 534.5,160.167 529.5,160.5C 524.119,160.494 519.119,159.828 514.5,158.5 Z"/></g>
<g><path style="opacity:1" fill="#414142" d="M 560.5,158.5 C 560.244,156.224 558.91,155.057 556.5,155C 558.134,154.506 559.801,154.34 561.5,154.5C 561.768,156.099 561.434,157.432 560.5,158.5 Z"/></g>
<g><path style="opacity:1" fill="#0b0cd5" d="M 514.5,137.5 C 524.522,137.168 534.522,137.501 544.5,138.5C 539.5,138.833 534.5,139.167 529.5,139.5C 524.119,139.494 519.119,138.828 514.5,137.5 Z"/></g>
<g><path style="opacity:1" fill="#343434" d="M 555.5,133.5 C 562.236,133.735 563.236,136.401 558.5,141.5C 559.376,142.251 560.376,142.751 561.5,143C 559.421,143.808 557.421,143.641 555.5,142.5C 557.167,140.5 558.833,138.5 560.5,136.5C 559.38,134.404 557.88,134.07 556,135.5C 555.536,134.906 555.369,134.239 555.5,133.5 Z"/></g>
<g><path style="opacity:1" fill="#fefefe" d="M 411.5,119.5 C 438.5,119.5 465.5,119.5 492.5,119.5C 492.5,139.833 492.5,160.167 492.5,180.5C 465.5,180.5 438.5,180.5 411.5,180.5C 411.5,160.167 411.5,139.833 411.5,119.5 Z"/></g>
<g><path style="opacity:1" fill="#0a09cb" d="M 514.5,116.5 C 524.522,116.168 534.522,116.501 544.5,117.5C 539.5,117.833 534.5,118.167 529.5,118.5C 524.119,118.494 519.119,117.828 514.5,116.5 Z"/></g>
<g><path style="opacity:1" fill="#3b3b3c" d="M 555.5,112.5 C 562.236,112.735 563.236,115.401 558.5,120.5C 559.376,121.251 560.376,121.751 561.5,122C 559.421,122.808 557.421,122.641 555.5,121.5C 557.167,119.5 558.833,117.5 560.5,115.5C 559.597,113.38 558.263,113.046 556.5,114.5C 555.702,114.043 555.369,113.376 555.5,112.5 Z"/></g>
<g><path style="opacity:1" fill="#db1816" d="M 514.5,95.5 C 524.522,95.1681 534.522,95.5015 544.5,96.5C 539.5,96.8333 534.5,97.1667 529.5,97.5C 524.119,97.4942 519.119,96.8275 514.5,95.5 Z"/></g>
<g><path style="opacity:1" fill="#0c0d0b" d="M 556.5,92.5 C 557.209,91.596 558.209,91.2627 559.5,91.5C 558.989,95.0297 559.656,98.1963 561.5,101C 559.833,101.667 558.167,101.667 556.5,101C 557.684,99.8197 558.351,98.3197 558.5,96.5C 558.415,94.6672 557.748,93.3339 556.5,92.5 Z"/></g>
<g><path style="opacity:1" fill="#050704" d="M 557.5,71.5 C 557.56,70.9569 557.893,70.6236 558.5,70.5C 558.961,73.9551 559.961,77.1218 561.5,80C 559.833,80.6667 558.167,80.6667 556.5,80C 557.684,78.8197 558.351,77.3197 558.5,75.5C 558.489,73.9549 558.156,72.6216 557.5,71.5 Z"/></g>
<g><path style="opacity:1" fill="#d01519" d="M 514.5,74.5 C 524.522,74.1681 534.522,74.5015 544.5,75.5C 539.5,75.8333 534.5,76.1667 529.5,76.5C 524.119,76.4942 519.119,75.8275 514.5,74.5 Z"/></g>
<g><path style="opacity:1" fill="#fefefe" d="M 411.5,58.5 C 438.5,58.5 465.5,58.5 492.5,58.5C 492.5,78.5 492.5,98.5 492.5,118.5C 465.5,118.5 438.5,118.5 411.5,118.5C 411.5,98.5 411.5,78.5 411.5,58.5 Z"/></g>
<g><path style="opacity:1" fill="#454545" d="M 55.5,307.5 C 56.0476,305.606 57.0476,303.94 58.5,302.5C 58.1667,301.5 57.5,300.833 56.5,300.5C 55.3914,301.59 54.3914,301.59 53.5,300.5C 55.396,299.534 57.396,299.201 59.5,299.5C 60.2264,303.26 58.8931,305.927 55.5,307.5 Z"/></g>
<g><path style="opacity:1" fill="#fefefe" d="M 80.5,304.5 C 107.833,304.5 135.167,304.5 162.5,304.5C 162.5,322.833 162.5,341.167 162.5,359.5C 161.325,359.281 160.325,359.614 159.5,360.5C 159.624,361.107 159.957,361.44 160.5,361.5C 160.5,361.833 160.5,362.167 160.5,362.5C 160.5,362.833 160.5,363.167 160.5,363.5C 161.167,364.167 161.833,364.833 162.5,365.5C 135.167,365.5 107.833,365.5 80.5,365.5C 80.5,345.167 80.5,324.833 80.5,304.5 Z"/></g>
<g><path style="opacity:1" fill="#fefefe" d="M 244.5,359.5 C 217.5,359.5 190.5,359.5 163.5,359.5C 163.5,341.167 163.5,322.833 163.5,304.5C 190.5,304.5 217.5,304.5 244.5,304.5C 244.5,322.833 244.5,341.167 244.5,359.5 Z"/></g>
<g><path style="opacity:1" fill="#fdfefd" d="M 321.5,304.5 C 321.666,313.506 321.5,322.506 321,331.5C 320.849,340.106 318.682,348.106 314.5,355.5C 309.927,358.469 304.927,359.803 299.5,359.5C 281.5,359.5 263.5,359.5 245.5,359.5C 245.5,341.167 245.5,322.833 245.5,304.5C 270.833,304.5 296.167,304.5 321.5,304.5 Z"/></g>
<g><path style="opacity:1" fill="#fdfefd" d="M 331.5,119.5 C 331.833,119.5 332.167,119.5 332.5,119.5C 332.5,139.833 332.5,160.167 332.5,180.5C 332.5,180.833 332.5,181.167 332.5,181.5C 332.5,201.5 332.5,221.5 332.5,241.5C 358.328,242.498 384.328,242.831 410.5,242.5C 410.5,262.833 410.5,283.167 410.5,303.5C 309.167,303.833 309.167,304.167 410.5,304.5C 410.833,376.5 411.167,376.5 411.5,304.5C 438.5,304.5 465.5,304.5 492.5,304.5C 492.5,322.833 492.5,341.167 492.5,359.5C 477.5,359.5 462.5,359.5 447.5,359.5C 434.167,359.5 420.833,359.5 407.5,359.5C 386.324,360.083 365.324,358.583 344.5,355C 342.308,354.074 340.308,352.907 338.5,351.5C 337.069,349.811 336.236,347.811 336,345.5C 335.662,340.453 334.995,335.453 334,330.5C 331.734,280.532 330.901,230.532 331.5,180.5C 331.5,160.167 331.5,139.833 331.5,119.5 Z"/></g>
<g><path style="opacity:1" fill="#fefdfd" d="M 575.5,304.5 C 575.5,324.833 575.5,345.167 575.5,365.5C 493.167,365.5 410.833,365.5 328.5,365.5C 328.5,356.5 328.5,347.5 328.5,338.5C 329.126,343.501 330.292,348.501 332,353.5C 334.51,356.665 337.676,358.665 341.5,359.5C 347.961,361.78 354.627,362.78 361.5,362.5C 383.497,363.167 405.664,363.5 428,363.5C 450.51,363.5 472.677,362.833 494.5,361.5C 493.525,342.546 493.192,323.546 493.5,304.5C 520.833,304.5 548.167,304.5 575.5,304.5 Z"/></g>
<g><path style="opacity:1" fill="#161616" d="M 55.5,307.5 C 56.6085,308.29 57.9419,308.79 59.5,309C 57.4213,309.808 55.4213,309.641 53.5,308.5C 53.9569,307.702 54.6236,307.369 55.5,307.5 Z"/></g>
<g><path style="opacity:1" fill="#373737" d="M 63.5,299.5 C 69.7863,300.315 71.1196,303.481 67.5,309C 65.8876,309.72 64.3876,309.554 63,308.5C 62.2642,305.408 62.4309,302.408 63.5,299.5 Z"/></g>
<g><path style="opacity:1" fill="#eaeaea" d="M 64.5,300.5 C 66.8896,300.685 67.8896,302.018 67.5,304.5C 67.6578,306.319 66.9911,307.652 65.5,308.5C 64.0542,307.829 63.3875,306.662 63.5,305C 63.7728,303.467 64.1062,301.967 64.5,300.5 Z"/></g>
<g><path style="opacity:1" fill="#e0f2d6" d="M 326.5,143.5 C 326.897,170.166 327.23,196.832 327.5,223.5C 327.332,255.357 327.332,287.357 327.5,319.5C 326.5,319.5 325.5,319.5 324.5,319.5C 324.666,325.842 324.5,332.175 324,338.5C 323.617,339.056 323.117,339.389 322.5,339.5C 323.532,324.858 324.366,310.191 325,295.5C 325.167,244.665 325.667,193.998 326.5,143.5 Z"/></g>
<g><path style="opacity:1" fill="#291fb0" d="M 330.5,303.5 C 330.589,317.597 331.589,331.597 333.5,345.5C 332.833,344.833 332.167,344.167 331.5,343.5C 331.156,339.106 330.49,334.772 329.5,330.5C 329.5,327.833 329.5,325.167 329.5,322.5C 328.585,315.185 328.418,307.852 329,300.5C 329.232,301.737 329.732,302.737 330.5,303.5 Z"/></g>
<g><path style="opacity:1" fill="#398a38" d="M 324.5,59.5 C 326.488,78.8049 327.154,98.4716 326.5,118.5C 326.5,118.833 326.5,119.167 326.5,119.5C 326.5,127.5 326.5,135.5 326.5,143.5C 325.667,193.998 325.167,244.665 325,295.5C 324.366,310.191 323.532,324.858 322.5,339.5C 322.12,354.668 314.453,362.335 299.5,362.5C 295.5,362.5 291.5,362.5 287.5,362.5C 245.167,362.5 202.833,362.5 160.5,362.5C 160.5,362.167 160.5,361.833 160.5,361.5C 206.833,360.833 253.167,360.167 299.5,359.5C 304.927,359.803 309.927,358.469 314.5,355.5C 318.682,348.106 320.849,340.106 321,331.5C 321.5,322.506 321.666,313.506 321.5,304.5C 321.5,304.167 321.5,303.833 321.5,303.5C 322.327,298.349 322.827,293.016 323,287.5C 323.5,231.501 323.667,175.501 323.5,119.5C 323.5,119.167 323.5,118.833 323.5,118.5C 324.272,98.8432 324.606,79.1765 324.5,59.5 Z"/></g>
<g><path style="opacity:1" fill="#eda6e3" d="M 331.5,343.5 C 332.167,344.167 332.833,344.833 333.5,345.5C 333.833,347.5 334.167,349.5 334.5,351.5C 332.345,349.383 331.345,346.716 331.5,343.5 Z"/></g>
<g><path style="opacity:1" fill="#e0363b" d="M 329.5,330.5 C 330.49,334.772 331.156,339.106 331.5,343.5C 331.345,346.716 332.345,349.383 334.5,351.5C 336.509,354.365 338.842,357.032 341.5,359.5C 337.676,358.665 334.51,356.665 332,353.5C 330.292,348.501 329.126,343.501 328.5,338.5C 328.167,338.5 327.833,338.5 327.5,338.5C 326.964,335.302 327.631,332.635 329.5,330.5 Z"/></g>
<g><path style="opacity:1" fill="#f6f9f6" d="M 327.5,319.5 C 328.167,320.5 328.833,321.5 329.5,322.5C 329.5,325.167 329.5,327.833 329.5,330.5C 327.631,332.635 326.964,335.302 327.5,338.5C 327.5,347.5 327.5,356.5 327.5,365.5C 324.167,365.5 320.833,365.5 317.5,365.5C 311.539,364.284 305.539,363.284 299.5,362.5C 314.453,362.335 322.12,354.668 322.5,339.5C 323.117,339.389 323.617,339.056 324,338.5C 324.5,332.175 324.666,325.842 324.5,319.5C 325.5,319.5 326.5,319.5 327.5,319.5 Z"/></g>
<g><path style="opacity:1" fill="#3329c2" d="M 338.5,351.5 C 340.308,352.907 342.308,354.074 344.5,355C 365.324,358.583 386.324,360.083 407.5,359.5C 392.342,360.496 377.009,360.83 361.5,360.5C 354.932,360.225 348.599,359.058 342.5,357C 340.833,355.333 339.167,353.667 337.5,352C 337.728,351.601 338.062,351.435 338.5,351.5 Z"/></g>
<g><path style="opacity:1" fill="#eefdd8" d="M 162.5,359.5 C 162.833,359.5 163.167,359.5 163.5,359.5C 190.5,359.5 217.5,359.5 244.5,359.5C 244.833,359.5 245.167,359.5 245.5,359.5C 263.5,359.5 281.5,359.5 299.5,359.5C 253.167,360.167 206.833,360.833 160.5,361.5C 159.957,361.44 159.624,361.107 159.5,360.5C 160.325,359.614 161.325,359.281 162.5,359.5 Z"/></g>
<g><path style="opacity:1" fill="#235878" d="M 407.5,359.5 C 420.833,359.5 434.167,359.5 447.5,359.5C 462.833,360.167 478.167,360.833 493.5,361.5C 449.33,361.832 405.33,361.499 361.5,360.5C 377.009,360.83 392.342,360.496 407.5,359.5 Z"/></g>
<g><path style="opacity:1" fill="#204474" d="M 160.5,363.5 C 160.5,363.167 160.5,362.833 160.5,362.5C 202.833,362.5 245.167,362.5 287.5,362.5C 287.5,362.833 287.5,363.167 287.5,363.5C 271.325,363.17 255.325,363.504 239.5,364.5C 234.167,364.5 228.833,364.5 223.5,364.5C 202.673,363.503 181.673,363.169 160.5,363.5 Z"/></g>
<g><path style="opacity:1" fill="#82c668" d="M 493.5,361.5 C 493.833,361.5 494.167,361.5 494.5,361.5C 472.677,362.833 450.51,363.5 428,363.5C 405.664,363.5 383.497,363.167 361.5,362.5C 405.67,362.832 449.67,362.499 493.5,361.5 Z"/></g>
<g><path style="opacity:1" fill="#9bade1" d="M 160.5,363.5 C 181.673,363.169 202.673,363.503 223.5,364.5C 203.091,364.179 182.758,364.512 162.5,365.5C 161.833,364.833 161.167,364.167 160.5,363.5 Z"/></g>
<g><path style="opacity:1" fill="#da3335" d="M 287.5,363.5 C 287.5,363.167 287.5,362.833 287.5,362.5C 291.5,362.5 295.5,362.5 299.5,362.5C 305.539,363.284 311.539,364.284 317.5,365.5C 321.326,367.827 323.826,371.161 325,375.5C 326.162,381.445 326.662,387.445 326.5,393.5C 326.167,393.5 325.833,393.5 325.5,393.5C 324.59,387.792 323.59,382.126 322.5,376.5C 321.833,371.167 318.833,368.167 313.5,367.5C 305.087,365.12 296.42,363.787 287.5,363.5 Z"/></g>
<g><path style="opacity:1" fill="#c6bec7" d="M 223.5,364.5 C 228.833,364.5 234.167,364.5 239.5,364.5C 247.5,364.5 255.5,364.5 263.5,364.5C 262.833,365.167 262.167,365.833 261.5,366.5C 248.833,366.5 236.167,366.5 223.5,366.5C 175.833,366.5 128.167,366.5 80.5,366.5C 80.5,366.167 80.5,365.833 80.5,365.5C 107.833,365.5 135.167,365.5 162.5,365.5C 182.758,364.512 203.091,364.179 223.5,364.5 Z"/></g>
<g><path style="opacity:1" fill="#afa8e5" d="M 263.5,364.5 C 271.675,364.841 279.675,365.508 287.5,366.5C 278.833,366.5 270.167,366.5 261.5,366.5C 262.167,365.833 262.833,365.167 263.5,364.5 Z"/></g>
<g><path style="opacity:1" fill="#b7b3bb" d="M 327.5,338.5 C 327.833,338.5 328.167,338.5 328.5,338.5C 328.5,347.5 328.5,356.5 328.5,365.5C 410.833,365.5 493.167,365.5 575.5,365.5C 575.5,365.833 575.5,366.167 575.5,366.5C 548.167,366.5 520.833,366.5 493.5,366.5C 493.5,386.5 493.5,406.5 493.5,426.5C 493.167,426.5 492.833,426.5 492.5,426.5C 492.5,406.5 492.5,386.5 492.5,366.5C 437.833,366.5 383.167,366.5 328.5,366.5C 328.5,386.5 328.5,406.5 328.5,426.5C 328.167,426.5 327.833,426.5 327.5,426.5C 327.828,415.321 327.495,404.321 326.5,393.5C 326.662,387.445 326.162,381.445 325,375.5C 323.826,371.161 321.326,367.827 317.5,365.5C 320.833,365.5 324.167,365.5 327.5,365.5C 327.5,356.5 327.5,347.5 327.5,338.5 Z"/></g>
<g><path style="opacity:1" fill="#fefefe" d="M 575.5,366.5 C 575.5,386.5 575.5,406.5 575.5,426.5C 548.167,426.5 520.833,426.5 493.5,426.5C 493.5,406.5 493.5,386.5 493.5,366.5C 520.833,366.5 548.167,366.5 575.5,366.5 Z"/></g>
<g><path style="opacity:1" fill="#fefefe" d="M 80.5,366.5 C 128.167,366.5 175.833,366.5 223.5,366.5C 230.313,367.491 237.313,367.825 244.5,367.5C 244.821,386.547 244.487,405.547 243.5,424.5C 217.003,425.167 190.67,425.833 164.5,426.5C 136.5,426.5 108.5,426.5 80.5,426.5C 80.5,406.5 80.5,386.5 80.5,366.5 Z"/></g>
<g><path style="opacity:1" fill="#fdfdfd" d="M 223.5,366.5 C 236.167,366.5 248.833,366.5 261.5,366.5C 270.167,366.5 278.833,366.5 287.5,366.5C 296.859,366.003 305.859,367.503 314.5,371C 319.846,376.683 322.679,383.516 323,391.5C 323.502,402.195 324.335,412.862 325.5,423.5C 326.548,413.506 326.548,403.506 325.5,393.5C 325.833,393.5 326.167,393.5 326.5,393.5C 327.495,404.321 327.828,415.321 327.5,426.5C 300.167,426.5 272.833,426.5 245.5,426.5C 245.83,406.66 245.497,386.993 244.5,367.5C 237.313,367.825 230.313,367.491 223.5,366.5 Z"/></g>
<g><path style="opacity:1" fill="#fdfdfd" d="M 492.5,426.5 C 437.833,426.5 383.167,426.5 328.5,426.5C 328.5,406.5 328.5,386.5 328.5,366.5C 383.167,366.5 437.833,366.5 492.5,366.5C 492.5,386.5 492.5,406.5 492.5,426.5 Z"/></g>
<g><path style="opacity:1" fill="#ecd4e4" d="M 313.5,367.5 C 318.833,368.167 321.833,371.167 322.5,376.5C 319.833,373.167 316.833,370.167 313.5,367.5 Z"/></g>
<g><path style="opacity:1" fill="#414141" d="M 63.5,360.5 C 69.7863,361.315 71.1196,364.481 67.5,370C 65.8876,370.72 64.3876,370.554 63,369.5C 62.3658,366.445 62.5325,363.445 63.5,360.5 Z"/></g>
<g><path style="opacity:1" fill="#e5e5e5" d="M 64.5,361.5 C 66.8896,361.685 67.8896,363.018 67.5,365.5C 66.3126,370.752 64.9793,370.752 63.5,365.5C 63.8457,364.151 64.179,362.817 64.5,361.5 Z"/></g>
<g><path style="opacity:1" fill="#3822d2" d="M 239.5,364.5 C 255.325,363.504 271.325,363.17 287.5,363.5C 296.42,363.787 305.087,365.12 313.5,367.5C 316.833,370.167 319.833,373.167 322.5,376.5C 323.59,382.126 324.59,387.792 325.5,393.5C 326.548,403.506 326.548,413.506 325.5,423.5C 324.335,412.862 323.502,402.195 323,391.5C 322.679,383.516 319.846,376.683 314.5,371C 305.859,367.503 296.859,366.003 287.5,366.5C 279.675,365.508 271.675,364.841 263.5,364.5C 255.5,364.5 247.5,364.5 239.5,364.5 Z"/></g>
<g><path style="opacity:1" fill="#414141" d="M 57.5,423.5 C 59.3442,424.204 59.8442,425.537 59,427.5C 57.8333,428.667 56.6667,429.833 55.5,431C 56.8333,431.333 58.1667,431.667 59.5,432C 52.8985,433.074 52.0651,431.574 57,427.5C 57.49,426.207 57.6567,424.873 57.5,423.5 Z"/></g>
<g><path style="opacity:1" fill="#d9d9d9" d="M 244.5,367.5 C 245.497,386.993 245.83,406.66 245.5,426.5C 218.5,426.5 191.5,426.5 164.5,426.5C 190.67,425.833 217.003,425.167 243.5,424.5C 244.487,405.547 244.821,386.547 244.5,367.5 Z"/></g>
<g><path style="opacity:1" fill="#3c3c3c" d="M 66.5,423.5 C 67.7479,424.334 68.4146,425.667 68.5,427.5C 68.3451,432.75 66.1785,433.75 62,430.5C 61.0561,427.653 61.5561,425.153 63.5,423C 64.7494,422.26 65.7494,422.427 66.5,423.5 Z"/></g>
<g><path style="opacity:1" fill="#eaeaea" d="M 66.5,423.5 C 68.1011,426.423 67.7678,429.09 65.5,431.5C 64.0089,430.652 63.3422,429.319 63.5,427.5C 63.1104,425.018 64.1104,423.685 66.5,423.5 Z"/></g>
<g><path style="opacity:1" fill="#131313" d="M 78.5,438.5 C 79.209,437.596 80.209,437.263 81.5,437.5C 80.9889,441.03 81.6556,444.196 83.5,447C 81.8333,447.667 80.1667,447.667 78.5,447C 79.6841,445.82 80.3507,444.32 80.5,442.5C 80.4146,440.667 79.7479,439.334 78.5,438.5 Z"/></g>
<g><path style="opacity:1" fill="#373737" d="M 576.5,437.5 C 578.199,437.34 579.866,437.506 581.5,438C 577.732,439.177 577.899,440.344 582,441.5C 583.5,446.667 581.667,448.5 576.5,447C 580.638,447.218 581.972,445.552 580.5,442C 579.207,441.51 577.873,441.343 576.5,441.5C 576.5,440.167 576.5,438.833 576.5,437.5 Z"/></g>
<g><path style="opacity:1" fill="#272727" d="M 407.5,437.5 C 413.324,437.347 413.657,438.013 408.5,439.5C 412.398,440.806 413.398,443.306 411.5,447C 409.833,447.667 408.167,447.667 406.5,447C 410.638,447.218 411.972,445.552 410.5,442C 409.552,441.517 408.552,441.351 407.5,441.5C 407.5,440.167 407.5,438.833 407.5,437.5 Z"/></g>
<g><path style="opacity:1" fill="#181818" d="M 486.5,437.5 C 487.5,437.5 488.5,437.5 489.5,437.5C 489.5,440.5 489.5,443.5 489.5,446.5C 492.263,447.455 491.263,447.622 486.5,447C 487.658,445.991 488.325,444.658 488.5,443C 488.079,441.011 487.412,439.177 486.5,437.5 Z"/></g>
<g><path style="opacity:1" fill="#3b3b3b" d="M 170.5,437.5 C 172.144,437.286 173.644,437.62 175,438.5C 175.777,441.429 175.61,444.263 174.5,447C 172.299,447.825 170.466,447.325 169,445.5C 168.282,442.593 168.782,439.926 170.5,437.5 Z"/></g>
<g><path style="opacity:1" fill="#ececec" d="M 171.5,438.5 C 175.017,440.61 175.351,443.277 172.5,446.5C 170.225,444.168 169.892,441.502 171.5,438.5 Z"/></g>
<g><path style="opacity:1" fill="#151515" d="M 569.5,438.5 C 570.209,437.596 571.209,437.263 572.5,437.5C 572.5,440.5 572.5,443.5 572.5,446.5C 575.263,447.455 574.263,447.622 569.5,447C 570.684,445.82 571.351,444.32 571.5,442.5C 571.415,440.667 570.748,439.334 569.5,438.5 Z"/></g>
<g><path style="opacity:1" fill="#313131" d="M 86.5,437.5 C 92.3239,437.347 92.6572,438.013 87.5,439.5C 92.268,440.184 93.6014,442.684 91.5,447C 89.8333,447.667 88.1667,447.667 86.5,447C 93.0665,444.961 93.0665,443.128 86.5,441.5C 86.5,440.167 86.5,438.833 86.5,437.5 Z"/></g>
<g><path style="opacity:1" fill="#151515" d="M 161.5,438.5 C 162.209,437.596 163.209,437.263 164.5,437.5C 163.989,441.03 164.656,444.196 166.5,447C 161.737,447.622 160.737,447.455 163.5,446.5C 164.036,443.302 163.369,440.635 161.5,438.5 Z"/></g>
<g><path style="opacity:1" fill="#444444" d="M 325.5,439.5 C 325.791,438.351 326.624,437.684 328,437.5C 330.627,438.075 331.794,439.741 331.5,442.5C 331.188,446.991 329.022,448.324 325,446.5C 324.204,443.961 324.371,441.628 325.5,439.5 Z"/></g>
<g><path style="opacity:1" fill="#e5e5e5" d="M 325.5,439.5 C 326.688,438.316 327.855,438.316 329,439.5C 329.667,441.5 329.667,443.5 329,445.5C 328.586,445.957 328.086,446.291 327.5,446.5C 325.829,444.49 325.162,442.157 325.5,439.5 Z"/></g>
<g><path style="opacity:1" fill="#363636" d="M 247.5,437.5 C 253.324,437.347 253.657,438.013 248.5,439.5C 253.268,440.184 254.601,442.684 252.5,447C 250.833,447.667 249.167,447.667 247.5,447C 254.067,444.961 254.067,443.128 247.5,441.5C 247.5,440.167 247.5,438.833 247.5,437.5 Z"/></g>
<g><path style="opacity:1" fill="#3a3a3a" d="M 495.5,438.5 C 498.456,437.239 500.123,438.405 500.5,442C 500.388,446.803 498.221,448.303 494,446.5C 493.833,445.333 493.667,444.167 493.5,443C 493.307,440.992 493.974,439.492 495.5,438.5 Z"/></g>
<g><path style="opacity:1" fill="#ededed" d="M 495.5,438.5 C 497.89,438.685 498.89,440.018 498.5,442.5C 497.313,447.752 495.979,447.752 494.5,442.5C 494.846,441.151 495.179,439.817 495.5,438.5 Z"/></g>
<g><path style="opacity:1" fill="#1f1f1f" d="M 320.5,458.5 C 324.893,458.457 325.226,458.957 321.5,460C 319.682,463.387 320.682,465.387 324.5,466C 322.888,466.72 321.388,466.554 320,465.5C 319.297,463.071 319.463,460.738 320.5,458.5 Z"/></g>
<g><path style="opacity:1" fill="#3b3b3b" d="M 339.5,458.5 C 341.369,460.889 343.203,460.889 345,458.5C 345.333,460.047 344.833,461.38 343.5,462.5C 346.328,466.198 345.995,466.865 342.5,464.5C 339.005,466.865 338.672,466.198 341.5,462.5C 340.37,461.378 339.703,460.044 339.5,458.5 Z"/></g>
<g><path style="opacity:1" fill="#363636" d="M 327.5,458.5 C 328.404,459.209 328.737,460.209 328.5,461.5C 332.676,460.831 334.009,462.331 332.5,466C 330.866,466.494 329.199,466.66 327.5,466.5C 327.5,463.833 327.5,461.167 327.5,458.5 Z"/></g>
<g><path style="opacity:1" fill="#e5e5e5" d="M 328.5,462.5 C 329.5,462.5 330.5,462.5 331.5,462.5C 331.5,463.5 331.5,464.5 331.5,465.5C 330.5,465.5 329.5,465.5 328.5,465.5C 328.5,464.5 328.5,463.5 328.5,462.5 Z"/></g>
<g><path style="opacity:1" fill="#2f2f2f" d="M 310.5,456.5 C 317.628,456.706 319.294,459.873 315.5,466C 309.498,466.993 307.332,464.493 309,458.5C 309.717,457.956 310.217,457.289 310.5,456.5 Z"/></g>
<g><path style="opacity:1" fill="#e8e8e8" d="M 311.5,457.5 C 312.822,457.33 313.989,457.663 315,458.5C 315.667,460.5 315.667,462.5 315,464.5C 312.218,466.011 310.385,465.178 309.5,462C 310.044,460.415 310.711,458.915 311.5,457.5 Z"/></g>
</svg>
